<?xml version="1.0" encoding="UTF-8"?>
<svg id="uuid-41b825bf-cdec-4eea-89d2-bbc92aed430a" data-name="Capa 2" xmlns="http://www.w3.org/2000/svg" viewBox="0 0 38.98 38.98">
  <defs>
    <style>
      .uuid-4385e5e6-7a1e-4fd0-a9a0-81ea39c0c38d {
        fill: #fff;
      }
    </style>
  </defs>
  <g id="uuid-30e6d338-5614-49b1-aa6d-ae08a6b31d89" data-name="Capa 1">
    <path class="uuid-4385e5e6-7a1e-4fd0-a9a0-81ea39c0c38d" d="M38.98,2.76c-.02-1.52-1.24-2.74-2.76-2.76-5.26-.07-17.52,1.37-26.73,14.82-.94,1.37-.75,3.23.43,4.41l9.83,9.83c1.18,1.18,3.04,1.37,4.41.43,13.45-9.21,14.89-21.47,14.82-26.73ZM26.99,18.34c-1.76,1.77-4.63,1.77-6.39,0-1.76-1.77-1.76-4.63,0-6.39,1.77-1.76,4.63-1.76,6.39,0,1.77,1.77,1.77,4.63,0,6.39ZM.36,31.04c-.47-.47-.47-1.24,0-1.72l1.96-1.96c.47-.47,1.24-.47,1.72,0,.48.47.48,1.24,0,1.72l-1.96,1.96c-.24.24-.55.36-.86.36s-.62-.12-.86-.36ZM7.71,32.99l-5.52,5.52c-.24.24-.55.36-.86.36s-.62-.12-.86-.36c-.47-.47-.47-1.24,0-1.72l5.52-5.52c.47-.47,1.24-.47,1.72,0,.47.47.47,1.24,0,1.72ZM11.62,34.95c.47.47.47,1.24,0,1.72l-1.96,1.96c-.24.24-.55.36-.86.36s-.62-.12-.86-.36c-.47-.47-.47-1.24,0-1.72l1.96-1.96c.47-.47,1.24-.47,1.72,0ZM7.09,9.71c-.94-.96-.7-2.55.47-3.18,1.7-.92,3.97-1.86,6.68-2.29.82-.13,1.57-.18,2.29-.21-2.6,1.9-5.19,4.34-7.62,7.49l-1.82-1.81ZM34.95,22.5c-.03.71-.08,1.44-.21,2.24-.43,2.71-1.38,4.98-2.29,6.68-.63,1.17-2.23,1.42-3.18.47l-1.8-1.81c3.14-2.41,5.59-4.99,7.48-7.58ZM8.28,21.04l9.66,9.66-.74.74c-1.17,1.17-3.07,1.17-4.24,0l-5.41-5.41c-1.17-1.17-1.17-3.07,0-4.24l.74-.74Z"/>
  </g>
</svg>