<?xml version="1.0" encoding="UTF-8"?>
<svg id="Capa_1" xmlns="http://www.w3.org/2000/svg" version="1.1" viewBox="0 0 574 629">
  <!-- Generator: Adobe Illustrator 29.8.3, SVG Export Plug-In . SVG Version: 2.1.1 Build 3)  -->
  <defs>
    <style>
      .st0 {
        fill: #004;
      }
    </style>
  </defs>
  <path class="st0" d="M446.8,259.6c-3.6-4.1-8.9-6.3-15.8-6.5-.6,0-1.5,0-2.9,0-1.4,0-3.4.3-6.1,1-3.7.9-6.8,3-9.3,6.4-2.5,3.4-3.8,7.4-3.9,12.3.3,5.2,1.7,9.7,4.3,13.4,3.6,4.9,9.2,7.5,17,7.8,7.2.2,12.8-2.4,16.8-7.9,2.6-3.7,4-8,4.1-12.9.1-5.4-1.2-9.9-4-13.4Z"/>
  <path class="st0" d="M291.3,78.1c1-7.4,4.1-19.4,6.3-24.4,1.7-3.7-10.9-4.5-16.8-3.6-5,.8-11.8,3.5-16.1,22.4-.6,2.5,26.1,9,26.5,5.6Z"/>
  <path class="st0" d="M153.5,117.9c1.4,1,2.9,1.5,4.4,1.6,1.3,0,2.6-.4,3.9-1,8.2-3.6,14.5-5.1,26.6-4.8,32.6.8,59.7,7.8,59.7,7.8-8.7,50.9-13.9,86.1-12.3,111.4.4,6.3,6.7,10.1,20.1,11.1,6.3.5,12.5-.1,18.6-1.8,3.3-1.2,5.4-3.7,5.4-7.4-.3-25.4,6.4-80.4,11.5-101.9,11.2,3,37.4,11.8,88.1,15.3,9.5.7,18.8,0,27.9-1.1,12.9-1.7,25.6-6.1,38.2-13.2,2.5-1.8,3.8-3.9,3.9-6.5l-.2-2c-2.9-12.2-9-21.8-18.4-28.6-1.4-1-2.9-1.5-4.4-1.6-1.3,0-2.6.3-3.9,1-11.6,5.9-23.4,8.9-35.5,8-65.9-4.7-130.3-30.6-191.1-34.5-9.5-.6-18.8,0-27.9,1.2-12.9,1.8-20.5,4.6-29.3,10-2.6,1.6-4,4-3.9,6.6,0,.5.1,1.5.2,2,2.1,12.4,9,21.9,18.5,28.6Z"/>
  <path class="st0" d="M189.7,161.2c7.3,1.6,13.5,0,18.6-4.6,3.4-3.2,5.6-7.1,6.6-11.9,1.2-5.3.6-10-1.6-14-2.9-4.7-7.9-7.9-14.9-9.4-.6-.1-1.6-.3-3-.6-1.4-.3-3.5-.4-6.5-.2-3.9.2-7.5,1.7-10.7,4.5-3.2,2.8-5.3,6.6-6.3,11.3-.7,5.2,0,9.9,1.9,14,2.7,5.5,8,9.2,15.9,10.9Z"/>
  <path class="st0" d="M452.4,205.5c-.6-19.1-4.7-34.1-12.5-44.9-1.6-2.2-3.3-4.3-5.1-6.2-3.6-3.9-9.2-5.2-14.3-3.8-4.3,1.2-8.7,2.1-13.1,2.7-9.2,1.1-18.5,1.8-27.9,1.1-7.4-.5-14.3-1.1-20.7-1.9-5.1-.6-10.2,1.3-13.6,5.2-10.2,11.6-14.5,25.9-14.7,50,0,9.8.2,6.5,1.2,28.2.5,13.1,30.8,9.4,39,5.9,3.3-1.5,5-4,5-7.5l-.3-4.2,31.4.3.3,7c0,3.5,1.6,6,4.7,7.5,8.3,4.4,38.7,8.5,39.2-5.2.5-16.2,1.3-17.9,1.5-34.1ZM407.7,199.1h-33.4c-.3-10.6,2.3-26,16.4-27.4,15.7,1,17.5,15.3,17,27.4Z"/>
  <path class="st0" d="M165.9,164.5c-1.4,1.2-2.3,2.7-2.7,4.5-2.2,5.8-11.1,45.8-12.2,55.3,0,7,5.3,10.6,18.4,13.6,6.2,1.4,12.4,1.7,18.7.8,3.4-.7,6.2-2.7,6.6-6.2,1.3-12.6,7.5-42.3,11-55.3.5-1.8,0-3.6-1-5.2-.9-1.6-2.3-2.8-4.2-3.7-3.9-1.4-7.8-2.6-11.8-3.5-6.5-1.5-11.7-2.1-18-2-1.7,0-3.3.6-4.7,1.8Z"/>
  <path class="st0" d="M225.1,357.9c9.5,5,28,16.8,28,16.8,11.2,7.6,47.9,39.3,85.2,44,3.4.4,6.9.8,10.5.9,13.1.4,27.7-1.5,43.9-5.7l5.5-1.8c3.8-1.4,5.8-4.2,5.9-8.5.4-13.7-2.5-22.2-12.3-29.7-1.5-1-3.1-2-4.5-1.5-16.8,5.2-28.6,4.9-36.5,5.1-28.9.5-46.8-19.9-68.9-36-13-8.8-28.6-16.6-42-22.7,10-12.5,20.1-26.4,29.5-41.1.7-1.2,1.1-2.5,1.2-3.8.2-1.8-.5-3.7-2-5.5-7.6-8.4-17-14.1-28.3-17.1h-1.1c-3-.4-5.4.8-7.3,3.4-12.3,19.1-26.3,37.1-40.8,52.8-2.4-19.4-.2-37,.3-49.8,0-1.9,0-5-1.2-6.4-1.6-6.3-38.3-10-41.5-4.3-.2.3-.4.8-.5,1.3-6.4,83.4,11.4,131.8,50.3,156.9,3.7,2.3,8.4,2.3,11.9-.3,6-4.4,14.4-14.3,18.2-17.8,2.4-2.2,3.4-6.4.9-8.6-9.3-8-16.5-16.4-22-24.9.7-.6,1.5-1.3,2.2-2,5.3,1.6,10.5,3.7,15.6,6.4Z"/>
  <path class="st0" d="M452.4,379.4c1.5-22.1,1.8-74,1.8-74-.1-1.4-.7-2.7-1.9-3.8-1.2-1.1-2.7-1.8-4.8-2.1-4.1-.5-25.3-.3-31.5.8-1.7.3-3.1,1-4.3,2.1-1.2,1.1-1.6,4.2-1.5,5.6,1.7,20.7.4,44.4-.7,91.1-.3,11.8,42.2-10.4,42.8-19.8Z"/>
  <path class="st0" d="M354.8,368.2c8.3,4.4,38.2-.8,39.1-9.7,1.7-15.7,1.8-23.3,2-39.5-.6-19.1-4.7-34.1-12.5-44.9-19.7-27.3-54-32.1-81.1-15.1-20.2,14.6-28.2,29.2-28.4,62.2,0,1.5,0,2.7,0,3.7,0,2.2,1.2,4.3,3.1,5.4,2.5,1.5,5,3.1,7.4,4.7,9.5,6.9,16.6,13.1,25.7,19.6,1.3,1.4,3.5,1,4,.6,2.8-2.4,5-4,5-7.5l-.3-4.2,31.4.3-.3,16.8c0,3.5,1.6,6,4.7,7.5ZM317.9,312.7c-.3-10.5,2.3-25.9,16.4-27.3,15.7,1,17.5,15.3,17,27.4h-33.4Z"/>
  <path class="st0" d="M515.2,482.1c-4.4-2-8.9-3.9-13.5-5.4-7.1-2.4-14.4-4.1-21.7-5.8-1.5-.3-3.2,0-4.9.4-3.5,1-6.1-.6-9-1.4-10.8-3.5-21.9-7.2-33.1-11.1-1.3-.5-.8-2.4.6-2.2l27,4.9c44-54.6,35.7-126,30.8-147.9-4.3-19-12.8-32.9-22.6-42.5-2.6-2.6-7.1-.9-7.5,2.8-.5,4-1.6,8.8-3.7,13.9-1.1,2.7.2,5.8,2.8,7.1,1.9,1,4,2.3,6.4,4.3,18.1,14.6,50.1,137.1-183.6,133.4-109.6-1.7-161.2-52.4-140.1-211,.8-6,1.6-12.1,2.9-18,.9-4.4,1.5-9.1,1.5-14.1,0-18.2-6.9-33.5-16.3-38.6-2-1.1-4.1-1.5-6.3-1.5-2.3,0-4.6,1.2-6.6,2.5-5.4,3.4-9.3,10.4-10.8,19.9-2.2,13.1.5,28.2,6.1,35,3.4,3.8,6.8,5.7,10.1,5.7s7.4-2.8,10-7.8c3.9-7.6,5-19.7,0-26.7-2.2-2.9-4.4-4.4-6.6-4.4s-5,2.3-6.5,6.2c-2,5.1-2,12.5,1.9,16.2.8.7,1.7,1.1,2.4,1.1,1.1,0,1.9-.8,2.3-1.5,1.1-1.7,1.2-4.4.2-6.2-.3-.8-.3-1.6.1-2.2.4-.7,1.3-1.1,2.1-1.1.9,0,1.7.5,2.1,1.4,1.6,4.1,1.3,8-.6,10.8-1.5,2.2-3.9,3.5-6.5,3.5-4.2,0-7.6-3.2-9.3-8.4-2.1-5.8-.9-14.2,2.8-19.4,2.3-3.3,5.4-5.1,8.8-5.1,1.8,0,3.6.5,5.5,1.4,6.9,4.2,10.7,13.6,9.8,24.3-.9,10.8-6.3,19.7-13.7,22.8-1.8.5-3.6.8-5.3.8-4.6,0-8.8-1.9-12.5-5.6-7-7.1-9.7-18.9-9.9-26.8-.3-11.6,1.7-27.8,10.9-36.1,0,0,.4-.3.6-.5h-32.3c-12.8,0-23.1,18.1-23.1,40.4s10.4,40.4,23.1,40.4h25.7c-101.4,135.4-10.5,300.9,178.7,298.5,9.8-.1,19.2-.6,28.1-1.3l13.3,9.3c3.1,2.4,6.9,3.9,8.7,8.4,1.6,4.4,4.6,6.7,8,9.4,11,9.3,22.6,17.9,35.4,24.6,2.3,1.2,4.7,0,7.2-2.8,1.2-1.3,4-6,4-6,1.7-2.3,1.8-6-.2-7.7-5-4-10.2-7.9-15.7-11.3-8.3-5.3-17.2-9.9-26.1-14.4-1.8-.8-4.1-.9-6.5-1-4.9.2-7.7-2.8-11.1-4.7-20.3-12.7-41.4-26.2-61.8-40.1-1.2-.8,0-2.6,1.2-1.9l68.5,35.5c24.7-3.8,45.7-10,63.4-17.9l14.4,8.1c3,1.9,6.5,2.8,8.5,6.7,1.8,3.7,4.7,5.6,8,7.6,10.6,7.3,21.7,13.9,33.7,18.8,2.2.9,4.2-.4,6.1-3.1,1-1.3,3-5.7,3-5.7,1.3-2.2,1.1-5.5-.9-6.8-4.8-3.1-9.8-6.1-14.9-8.7-7.9-4-16.2-7.3-24.5-10.5-1.7-.6-3.8-.5-5.8-.3-4.3.6-7.1-1.8-10.3-3.2-18.7-9.3-38.2-19.2-57.1-29.5-1.2-.7-.4-2.6,1-2.1l53.8,21.4c15-8.4,27.3-18.1,37.3-28.7l11.5,4.4c2.7,1.2,5.8,1.5,7.9,4.6,1.9,2.9,4.6,4.1,7.6,5.4,9.8,4.8,19.8,8.9,30.3,11.5,1.9.5,3.4-.9,4.7-3.3.6-1.2,1.8-5.1,1.8-5.1.8-2,.2-4.7-1.6-5.6Z"/>
</svg>