<?xml version="1.0" encoding="UTF-8"?>
<svg id="Capa_1" xmlns="http://www.w3.org/2000/svg" version="1.1" xmlns:xlink="http://www.w3.org/1999/xlink" viewBox="0 0 574 629">
  <!-- Generator: Adobe Illustrator 29.8.3, SVG Export Plug-In . SVG Version: 2.1.1 Build 3)  -->
  <defs>
    <style>
      .st0 {
        fill: #fff;
      }

      .st1 {
        isolation: isolate;
      }

      .st2 {
        fill: url(#Degradado_sin_nombre);
      }

      .st3 {
        fill: #004;
      }
    </style>
    <linearGradient id="Degradado_sin_nombre" data-name="Degradado sin nombre" x1="259.2" y1="533.8" x2="318.7" y2="90" gradientUnits="userSpaceOnUse">
      <stop offset="0" stop-color="#ff5200"/>
      <stop offset="1" stop-color="#ffd701"/>
    </linearGradient>
  </defs>
  <g class="st1">
    <g id="Capa_11">
      <g>
        <g>
          <path class="st0" d="M380.8,625.3c-7.7,0-15.4-1.9-22.4-5.5h0c-14-7.4-27.6-16.7-42.6-29.4-3.9-3-10.2-8.1-15.6-16.3-4.7.2-9.4.3-14,.4-27.7.4-54.6-2.5-79.7-8.4-24.6-5.8-47.8-14.6-68.8-26.1-41.5-22.7-74.2-55.8-94.4-95.5-18.5-36.4-25.9-77.3-21.4-118.3,2.3-20.8,7.6-41.6,15.8-61.8.7-1.7,1.4-3.4,2.2-5.2-5.2-4.8-9.7-10.6-13.4-17.2-8.3-14.4-12.6-31.9-12.6-50.6s4.4-36.1,12.6-50.6c5.2-9.1,11.8-16.6,19.5-22.3,10.5-7.7,22.7-11.8,35.3-11.8h13c-.7-2.6-1.3-5.2-1.7-7.9h0c-.4-2.5-.7-5.5-.8-8-.3-9.7,2.1-19.3,7-27.7,4.3-7.3,10.4-13.6,17.8-18.1,14.6-9,28.1-13.8,46.7-16.3h.4c13.6-1.7,25.2-2.2,36.4-1.5,12.3.8,24.6,2.4,36.8,4.4,1.3-1.8,2.7-3.5,4.2-5.1,6.3-6.9,17.4-15.7,34.3-18.3,6.3-1,13.5-1.1,20.5-.5,16.7,1.6,29.5,8.2,38.2,19.5,6.2,8.1,9.3,17.8,9.4,27.6,16.2,3.3,32.1,5.8,48,6.9,3.3.2,7.4-.9,12.3-3.3,8.1-4.1,17-6.1,25.8-5.7,9.8.4,19.3,3.6,27.6,9.2.4.3.9.6,1.3.9,17.9,13.1,30.1,31.9,35.3,54.3.4,1.8.7,3.7.9,5.6l.2,2c.2,2.1.3,4.2.2,6.3-.4,8.7-2.9,17.1-7.2,24.4,6.3,14.6,9.7,31.5,10.3,50.6v1.8c0,10.2-.5,15.6-.8,20.9-.2,2.7-.3,5.3-.5,8.8,1.6,1.2,3.1,2.5,4.5,3.9,17.1,16.8,29.1,39.1,34.8,64.4,1.9,8.3,7.6,38.3,3.7,75.8-1.9,18.8-6,36.9-12.1,53.7-.5,1.4-1.1,2.9-1.6,4.3,2.7,1.1,5.6,2.3,8.7,3.7,0,0,.3.1.4.2,12.8,6,22.3,17.4,26,31.3,2.4,9.3,2.1,19.2-.9,28.3-2,6.6-3.6,10-5,12.4-3.8,7-8.7,12.8-14.6,17.2-6,4.5-12.8,7.4-19.9,8.7-.5,6.5-2.3,12.9-5.3,18.7-3.7,7.8-6.1,11.1-7.2,12.5-4.9,6.6-10.8,11.7-17.5,15.4-12.7,6.8-27.5,7.7-40.8,2.3h0c-5.4-2.2-10.7-4.7-16.1-7.5-1.4,4.4-3.3,8.7-5.8,12.5-4.2,6.9-6.8,10.1-8.8,12.3-5.7,6.2-12.2,10.9-19.3,13.8-6,2.5-12.4,3.8-18.8,3.8h-.5Z"/>
          <path class="st3" d="M380.8,619c-6.7,0-13.4-1.6-19.5-4.8h0c-13.6-7.2-26.9-16.3-41.6-28.7-4.1-3.2-10.5-8.3-15.5-16.9l-1.4-1c-5.6.3-11.2.4-16.7.5-27.2.4-53.5-2.4-78.2-8.2-24.1-5.7-46.7-14.2-67.2-25.5-40.4-22.1-72.1-54.2-91.8-92.8-17.9-35.3-25.1-74.9-20.8-114.7,2.2-20.3,7.4-40.5,15.4-60.1,1.3-3.1,2.6-6.2,4-9.2-6.1-5-11.4-11.2-15.6-18.7-7.6-13.3-11.8-30.1-11.8-47.4s4.2-34.1,11.8-47.4c4.8-8.3,10.7-15.1,17.8-20.3,9.4-6.9,20.3-10.6,31.6-10.6h21.7c-1.9-4.9-3.3-10-4.2-15.3-.3-1.7-.7-4.5-.7-7.1-.6-16.3,7.6-31.3,21.8-40.2,13.7-8.5,26.5-13,44.2-15.4h.4c13.2-1.7,24.4-2.1,35.2-1.4,13.4.9,26.8,2.7,40.1,5,1.8-2.8,3.8-5.4,6-7.8,8.2-9,18.5-14.5,30.5-16.3,5.7-.9,12.6-1,18.9-.4,14.9,1.4,26.2,7.1,33.7,17,6.4,8.4,9,18.8,7.8,28.9,18.2,3.8,36.4,6.9,54.2,8.2,4.5.3,9.6-1,15.6-4,7.1-3.6,14.9-5.4,22.7-5,8.6.3,17,3.2,24.3,8.1.4.3.7.5,1.1.8,16.6,12.2,28,29.7,32.9,50.6.4,1.6.6,3.2.8,4.8l.2,2c.2,1.8.2,3.6.2,5.4-.4,8.7-3.2,17-8.1,24.1,6.8,14.5,10.5,31.7,11.1,51.3v1.5c0,10-.5,15.4-.8,20.6-.2,3.4-.4,6.9-.6,12.4,2.3,1.5,4.5,3.3,6.5,5.3,16.2,16,27.6,37.2,33,61.3,1.8,8.1,7.4,37.2,3.6,73.8-1.9,18.3-5.8,35.9-11.8,52.2-1.2,3.4-2.6,6.8-4,10.1,4.5,1.6,9.1,3.5,14.4,5.9,0,0,.2.1.3.2,11.1,5.2,19.3,15.1,22.5,27.2,2.1,8.1,1.8,16.8-.8,24.7-1.9,6.1-3.3,9.2-4.5,11.3-3.3,6.2-7.7,11.3-12.9,15.2-6.6,4.9-14.3,7.7-22.3,8.1.3,7.5-1.4,15-4.8,21.6-3.5,7.3-5.6,10.2-6.6,11.5-4.4,5.8-9.5,10.4-15.4,13.6-11,5.9-23.9,6.7-35.4,2h0c-7.6-3.1-15.1-6.8-22.9-11.3-.8,6.7-3.2,13.2-6.8,18.8-3.9,6.5-6.3,9.4-8.1,11.3-5.1,5.5-10.8,9.7-17.1,12.3-5.3,2.2-10.8,3.3-16.3,3.3v-.4h-.1Z"/>
        </g>
        <path class="st2" d="M451.9,254.2c0,4.8-1.5,9.1-4.1,12.9-4,5.5-9.6,8.2-16.8,7.9-7.7-.2-13.4-2.8-17-7.8-2.6-3.7-4.1-8.2-4.3-13.4,0-4.8,1.4-8.9,3.9-12.3,2.5-3.3,5.6-5.5,9.3-6.4,2.7-.7,4.8-1.1,6.1-1h2.9c7,.2,12.2,2.4,15.8,6.5,2.8,3.5,4.2,8,4,13.4l.2.2h0ZM292.4,59.4c1-7.4,4.1-19.4,6.3-24.4,1.7-3.7-10.9-4.5-16.8-3.6-5,.8-11.8,3.5-16.1,22.4-.6,2.5,26.1,9,26.5,5.6h0ZM154.7,99.2c1.4,1,2.9,1.5,4.4,1.6,1.3,0,2.6-.4,3.9-1,8.2-3.6,14.5-5.1,26.6-4.8,32.6.8,59.6,7.8,59.6,7.8-8.7,50.9-13.9,86-12.3,111.3.4,6.3,6.7,10.1,20.1,11.1,6.3.5,12.5-.1,18.6-1.8,3.3-1.2,5.4-3.7,5.4-7.4-.3-25.4,6.4-80.4,11.5-101.8,11.2,3,37.4,11.8,88,15.3,9.5.7,18.8,0,27.9-1.1,12.9-1.7,25.6-6.1,38.2-13.2,2.5-1.8,3.8-3.9,3.9-6.5l-.2-2c-2.8-12.2-9-21.7-18.4-28.6-1.4-1-2.9-1.5-4.4-1.6-1.3,0-2.6.3-3.9,1-11.6,5.9-23.4,8.9-35.5,8-65.9-4.7-130.3-30.6-191-34.5-9.5-.6-18.8,0-27.9,1.2-12.9,1.8-20.5,4.6-29.3,10-2.6,1.6-4,4-3.9,6.6,0,.5.1,1.5.2,2,2.1,12.3,8.9,21.9,18.5,28.6v-.2h0ZM190.9,142.5c7.3,1.6,13.5,0,18.6-4.6,3.4-3.2,5.6-7.1,6.6-11.8,1.2-5.3.6-10-1.6-13.9-2.9-4.7-7.9-7.9-14.9-9.4-.6-.1-1.6-.3-2.9-.6-1.4-.3-3.5-.4-6.5-.2-3.9.2-7.5,1.7-10.7,4.5s-5.3,6.6-6.3,11.3c-.7,5.2,0,9.9,1.9,14,2.7,5.5,8,9.2,15.9,10.9v-.2h-.1ZM452,220.8c-.4,13.7-30.9,9.5-39.1,5.2-3.2-1.5-4.7-4-4.7-7.5l-.3-7-31.4-.3.3,4.2c0,3.5-1.7,6-5,7.5-8.2,3.6-38.5,7.2-39-5.9-1-21.6-1.3-18.3-1.2-28.2.2-24.1,4.5-38.3,14.7-50,3.4-3.9,8.5-5.7,13.6-5.2,6.4.7,13.3,1.3,20.7,1.9,9.5.7,18.8,0,27.9-1.1,4.4-.6,8.8-1.5,13.1-2.7,5.1-1.4,10.7-.1,14.3,3.8,1.8,1.9,3.5,4,5.1,6.2,7.8,10.8,12,25.7,12.5,44.9-.2,16.2-1,17.9-1.5,34.1h0ZM391.8,153c-14.1,1.4-16.7,16.8-16.4,27.3h33.4c.5-12-1.3-26.3-17-27.3ZM167.1,145.8c-1.4,1.2-2.3,2.7-2.7,4.5-2.2,5.8-11.1,45.8-12.2,55.3,0,7,5.3,10.6,18.3,13.6,6.2,1.4,12.4,1.7,18.7.8,3.4-.7,6.2-2.7,6.6-6.2,1.3-12.6,7.5-42.3,11-55.3.5-1.8,0-3.6-1-5.2-.9-1.6-2.3-2.8-4.2-3.7-3.9-1.4-7.8-2.6-11.8-3.5-6.5-1.5-11.7-2.1-18-2-1.7,0-3.3.6-4.7,1.8h0ZM226.3,339.1c9.5,5,28,16.8,28,16.8,11.2,7.6,47.8,39.3,85.1,44,3.4.4,6.9.8,10.5.9,13.1.4,27.7-1.5,43.9-5.7l5.4-1.8c3.8-1.4,5.8-4.2,5.9-8.5.4-13.7-2.5-22.2-12.3-29.7-1.5-1-3.1-2-4.5-1.5-16.8,5.2-28.6,4.9-36.5,5.1-28.9.5-46.8-19.9-68.9-36-13-8.8-28.6-16.6-42-22.7,10-12.5,20.1-26.4,29.5-41.1.7-1.2,1.1-2.5,1.2-3.8.2-1.8-.5-3.7-2-5.5-7.6-8.4-17-14.1-28.3-17h-1.1c-3-.4-5.4.8-7.3,3.4-12.3,19.1-26.3,37.1-40.8,52.7-2.4-19.4-.2-37,.3-49.8,0-1.9,0-5-1.2-6.4-1.6-6.3-38.3-10-41.4-4.3-.2.3-.4.8-.5,1.3-6.4,83.3,11.4,131.8,50.3,156.8,3.7,2.3,8.4,2.3,11.9-.3,6-4.4,14.4-14.2,18.2-17.8,2.4-2.2,3.4-6.4.9-8.6-9.3-8-16.5-16.4-22-24.9.7-.6,1.5-1.3,2.2-2,5.3,1.6,10.5,3.7,15.6,6.4h-.1ZM453.4,360.6c1.5-22.1,1.8-74,1.8-74,0-1.4-.7-2.7-1.9-3.8-1.2-1.1-2.7-1.8-4.8-2.1-4.1-.5-25.3-.3-31.5.8-1.7.3-3.1,1-4.3,2.1s-1.6,4.2-1.5,5.6c1.7,20.6.4,44.4-.7,91.1-.3,11.8,42.1-10.3,42.8-19.8h.1ZM351.1,341.9l.3-16.8-31.4-.3.3,4.2c0,3.5-2.2,5.1-5,7.5-.5.4-2.7.8-4-.6-9.1-6.5-16.2-12.7-25.7-19.6-2.4-1.6-4.9-3.2-7.4-4.7-1.9-1.2-3.1-3.2-3.1-5.4v-3.7c.2-33,8.2-47.5,28.4-62.1,27.1-16.9,61.4-12.2,81,15.1,7.8,10.8,12,25.7,12.5,44.9-.2,16.2-.3,23.7-2,39.5-1,8.9-30.9,14-39.1,9.7-3.2-1.5-4.7-4-4.7-7.5v-.2h0ZM352.4,293.9c.5-12-1.3-26.4-17-27.4-14.1,1.4-16.7,16.8-16.4,27.3h33.4ZM516.2,463.2c-4.4-2-8.9-3.9-13.5-5.4-7.1-2.4-14.4-4-21.7-5.8-1.5-.3-3.2,0-4.9.4-3.5,1-6.1-.6-9-1.4-10.8-3.5-21.9-7.2-33.1-11.1-1.3-.5-.8-2.4.6-2.2l27,4.9c44-54.5,35.7-126,30.8-147.8-4.3-19-12.8-32.9-22.6-42.5-2.6-2.6-7.1-.9-7.5,2.8s-1.6,8.8-3.7,13.9c-1.1,2.7.2,5.8,2.8,7.1,1.9,1,4,2.3,6.4,4.3,18.1,14.6,50,137.1-183.5,133.4-109.6-1.7-161.1-52.4-140-210.9.8-6,1.6-12.1,2.9-18,.9-4.4,1.5-9.1,1.5-14.1,0-18.2-6.9-33.5-16.3-38.6-2-1.1-4.1-1.5-6.3-1.5s-4.6,1.2-6.6,2.5c-5.4,3.4-9.3,10.4-10.8,19.9-2.2,13.1.5,28.1,6.1,35,3.4,3.8,6.8,5.7,10.1,5.7s7.4-2.8,10-7.7c3.9-7.6,5-19.7,0-26.7-2.2-2.9-4.4-4.4-6.6-4.4s-5,2.3-6.5,6.2c-2,5.1-2,12.5,1.9,16.1.8.7,1.7,1.1,2.4,1.1,1.1,0,1.9-.8,2.3-1.5,1.1-1.7,1.2-4.4.2-6.2-.3-.8-.3-1.6.1-2.2.4-.7,1.3-1.1,2.1-1.1s1.7.5,2.1,1.4c1.6,4.1,1.3,8-.6,10.8-1.5,2.2-3.9,3.5-6.5,3.5-4.2,0-7.6-3.2-9.3-8.4-2.1-5.8-.9-14.2,2.8-19.4,2.3-3.3,5.4-5.1,8.8-5.1s3.6.5,5.5,1.4c6.9,4.2,10.7,13.6,9.8,24.3-.9,10.8-6.3,19.7-13.7,22.7-1.8.5-3.6.8-5.3.8-4.6,0-8.8-1.9-12.4-5.6-7-7.1-9.7-18.9-9.9-26.8-.3-11.6,1.7-27.8,10.9-36.1,0,0,.4-.3.6-.5h-32.3c-12.8,0-23.1,18.1-23.1,40.3s10.3,40.3,23.1,40.3h25.7c-101.4,135.3-10.5,300.8,178.7,298.4,9.8,0,19.2-.6,28.1-1.3l13.3,9.3c3.1,2.4,6.9,3.9,8.7,8.4,1.6,4.4,4.6,6.7,8,9.4,11,9.3,22.6,17.9,35.3,24.6,2.3,1.2,4.7,0,7.2-2.8,1.2-1.3,4-6,4-6,1.7-2.3,1.8-6-.2-7.7-5-4-10.2-7.9-15.6-11.3-8.3-5.3-17.2-9.9-26.1-14.4-1.8-.8-4.1-.9-6.5-1-4.9.2-7.7-2.8-11.1-4.7-20.3-12.7-41.4-26.2-61.8-40.1-1.2-.8,0-2.6,1.2-1.9l68.5,35.5c24.7-3.8,45.6-9.9,63.4-17.9l14.4,8.1c3,1.9,6.5,2.8,8.5,6.7,1.8,3.7,4.7,5.6,8,7.6,10.6,7.3,21.7,13.9,33.6,18.8,2.2.9,4.2-.4,6.1-3.1,1-1.3,3-5.7,3-5.7,1.3-2.2,1.1-5.5-.9-6.8-4.8-3.1-9.8-6.1-14.9-8.7-7.9-4-16.2-7.3-24.5-10.5-1.7-.6-3.8-.5-5.8-.3-4.3.6-7.1-1.8-10.3-3.2-18.7-9.3-38.1-19.2-57.1-29.5-1.2-.7-.4-2.6,1-2.1l53.8,21.4c15-8.4,27.3-18.1,37.3-28.7l11.5,4.4c2.7,1.2,5.8,1.5,7.9,4.6,1.9,2.9,4.6,4.1,7.6,5.4,9.7,4.8,19.7,8.9,30.3,11.5,1.9.5,3.4-.9,4.7-3.3.6-1.2,1.8-5.1,1.8-5.1.8-2,.2-4.7-1.6-5.6l-.3-.2h0Z"/>
      </g>
    </g>
  </g>
</svg>