<?xml version="1.0" encoding="UTF-8"?>
<svg id="Capa_1" xmlns="http://www.w3.org/2000/svg" version="1.1" viewBox="0 0 500.1 549.4">
  <!-- Generator: Adobe Illustrator 29.8.3, SVG Export Plug-In . SVG Version: 2.1.1 Build 3)  -->
  <defs>
    <style>
      .st0 {
        fill: #004;
      }
    </style>
  </defs>
  <path class="st0" d="M448.4,225.6c-.7-24-6-42.8-15.8-56.4-2-2.8-4.2-5.4-6.4-7.8-4.6-4.9-11.6-6.6-18-4.8-5.5,1.5-11,2.7-16.5,3.4-11.5,1.4-23.2,2.2-35.1,1.4-9.3-.6-18-1.4-26-2.3-6.4-.7-12.8,1.6-17.1,6.5-12.8,14.6-18.2,32.5-18.4,62.8,0,12.4.2,8.2,1.5,35.4.6,16.4,38.7,11.9,49,7.4,4.2-1.9,6.3-5,6.3-9.5l-.4-5.3,39.5.4.3,8.8c0,4.4,2,7.6,6,9.5,10.4,5.5,48.7,10.7,49.2-6.5.6-20.4,1.6-22.5,1.8-42.9ZM392.3,217.7h-42c-.4-13.3,2.9-32.7,20.6-34.4,19.8,1.2,22,19.3,21.4,34.4ZM325.8,430.1c10.4,5.5,48-1,49.2-12.1,2.1-19.8,2.3-29.2,2.5-49.6-.7-24-6-42.8-15.8-56.4-24.7-34.3-67.8-40.3-101.8-19-25.4,18.4-35.4,36.7-35.7,78.1,0,1.9,0,3.4,0,4.6,0,2.8,1.5,5.4,3.9,6.8,3.2,1.9,6.3,3.9,9.3,5.9,11.9,8.6,20.8,16.4,32.3,24.6,1.6,1.8,4.4,1.3,5.1.8,3.5-3,6.3-5,6.3-9.5l-.4-5.3,39.5.4-.3,21.2c0,4.4,2,7.6,6,9.5ZM279.4,360.3c-.4-13.2,2.9-32.6,20.6-34.3,19.8,1.2,22,19.3,21.4,34.4h-42ZM94.5,171.9c7.9-.1,14.4.7,22.6,2.6,5,1.1,9.9,2.6,14.8,4.4,2.4,1,4.1,2.6,5.2,4.6,1.1,2,1.8,4.3,1.2,6.6-4.4,16.4-12.2,53.7-13.8,69.5-.4,4.4-4,6.9-8.2,7.8-7.9,1.1-15.7.7-23.5-1-16.4-3.7-23-8.2-23.1-17.1,1.3-11.9,12.6-62.2,15.4-69.5.5-2.3,1.7-4.2,3.4-5.7,1.8-1.5,3.7-2.3,5.9-2.3ZM98.5,156.3c-2.5-5.2-3.3-11.1-2.4-17.6,1.3-5.9,3.9-10.7,8-14.2,4-3.5,8.5-5.4,13.5-5.6,3.7-.2,6.4-.2,8.1.2,1.7.4,3,.6,3.7.8,8.9,1.9,15.2,5.9,18.8,11.9,2.8,5,3.5,10.9,2,17.5-1.3,5.9-4.1,10.9-8.3,14.9-6.5,5.8-14.3,7.8-23.4,5.8-9.9-2.2-16.5-6.7-19.9-13.7ZM394.7,469c1.3-58.7,2.9-88.5.8-114.5-.1-1.8.4-5.6,1.9-7.1,1.5-1.4,3.3-2.3,5.4-2.7,7.8-1.4,34.5-1.6,39.6-1,2.6.4,4.5,1.3,6,2.6,1.5,1.4,2.2,3,2.4,4.8,0,0-.4,67.6-2.3,95.3-.8,11.8-54.1,37.4-53.8,22.5ZM446.5,310.5c-.1,6.1-1.9,11.5-5.1,16.2-5,6.9-12.1,10.3-21.1,10-9.7-.3-16.8-3.5-21.3-9.8-3.3-4.7-5.1-10.3-5.4-16.9.1-6.1,1.8-11.2,4.9-15.4,3.1-4.2,7-6.9,11.7-8,3.4-.9,6-1.3,7.7-1.3,1.7,0,2.9,0,3.6.1,8.8.3,15.4,3,19.9,8.2,3.5,4.4,5.2,10,5.1,16.9ZM49.7,79.8c-.1-.6-.2-1.8-.3-2.5-.1-3.3,1.6-6.2,4.9-8.2,11.1-6.9,20.6-10.4,36.8-12.6,11.5-1.5,23.2-2.3,35.1-1.5,76.3,4.9,157.3,37.5,240.1,43.4,15.1,1.1,30-2.7,44.6-10.1,1.7-.9,3.3-1.3,5-1.2,1.9,0,3.7.7,5.5,2,11.8,8.7,19.5,20.7,23.1,36l.3,2.5c-.1,3.3-1.8,6-4.9,8.2-15.8,8.9-31.8,14.5-48,16.6-11.5,1.4-23.2,2.2-35.1,1.4-63.7-4.4-96.5-15.5-110.6-19.3-6.3,26.9-14.8,96.1-14.4,128,0,4.7-2.6,7.8-6.7,9.3-7.7,2.2-15.5,3-23.4,2.3-16.8-1.4-24.7-6-25.2-14-2-31.8,4.5-75.9,15.5-139.9,0,0-34-8.7-74.9-9.8-15.2-.4-23.1,1.6-33.4,6.1-1.7.8-3.3,1.3-5,1.2-1.9,0-3.7-.7-5.5-2-12-8.4-20.6-20.4-23.2-35.9ZM143.4,409.1c-.9.8-1.9,1.7-2.8,2.5,6.9,10.7,16,21.2,27.7,31.3,3.1,2.7,1.9,8-1.1,10.8-4.8,4.4-15.3,16.8-22.9,22.3-4.4,3.2-10.4,3.3-15,.4-49-31.5-71.2-92.4-63.2-197.1.2-.7.5-1.2.7-1.6,4-7.2,50.1-2.5,52.1,5.4,1.4,1.7,1.6,5.7,1.5,8-.6,16.1-3.4,38.3-.4,62.6,18.3-19.7,35.9-42.3,51.3-66.3,2.4-3.3,5.5-4.7,9.2-4.4h1.4c14.2,3.9,26,11,35.5,21.6,1.9,2.3,2.7,4.6,2.5,6.9-.2,1.6-.7,3.2-1.5,4.8-11.9,18.5-24.5,36-37.1,51.7,16.8,7.6,36.4,17.4,52.8,28.5,27.8,20.2,50.3,45.9,86.6,45.2,10-.2,24.7,0,45.9-6.4,1.8-.6,3.8.7,5.7,1.9,12.4,9.5,16,20.1,15.5,37.4-.1,5.4-2.6,8.9-7.4,10.6l-6.8,2.3c-20.4,5.3-38.8,7.7-55.2,7.2-4.5-.1-8.9-.5-13.2-1.1-46.9-5.9-93-45.7-107-55.3,0,0-23.2-14.8-35.1-21.1-6.3-3.3-12.9-6-19.6-8Z"/>
</svg>