<?xml version="1.0" encoding="UTF-8"?>
<svg id="uuid-3ee9f3a3-bfb1-468b-b6d7-1c1c4ac9b6d0" data-name="Capa 2" xmlns="http://www.w3.org/2000/svg" viewBox="0 0 471.49 888.71">
  <defs>
    <style>
      .uuid-6f06161e-3070-414b-8b0d-96bbf7146a2f {
        fill: #00557e;
      }

      .uuid-fcd1fffc-26aa-4efb-a5e7-67a5f6bc7386 {
        fill: #b8b8b5;
      }

      .uuid-b439fe78-a5c9-4c17-bf73-318f42d75d02 {
        fill: #0080bd;
      }

      .uuid-60cb8b76-0f34-456c-93ad-c1db1ee7b974 {
        fill: #a8e2fe;
      }

      .uuid-0da99c41-bc5b-4558-81ae-2eb48c67c4bd {
        fill: #403e30;
      }

      .uuid-55359203-1ced-4802-bafa-e768fd616c89 {
        fill: #40310e;
      }

      .uuid-cd1ed453-0ee8-4a05-a26a-9ffd83b8186e {
        fill: #eaebea;
      }

      .uuid-bf417b0e-da6c-4d54-b7b9-ef0aed575391 {
        fill: #002b3f;
      }

      .uuid-c85be0cc-24e9-436c-b436-2509e11bd3d5 {
        fill: #00aafc;
      }

      .uuid-36fa5a26-e9ef-4667-ad48-3fc0950cdfd0 {
        fill: #ffc338;
      }
    </style>
  </defs>
  <g id="uuid-cdacbace-f24a-470d-a36f-2dd23a41f61b" data-name="Capa 1">
    <g>
      <ellipse class="uuid-60cb8b76-0f34-456c-93ad-c1db1ee7b974" cx="260.82" cy="850.39" rx="210.67" ry="38.32"/>
      <path class="uuid-fcd1fffc-26aa-4efb-a5e7-67a5f6bc7386" d="M175.49,647.4c24.67,1.11,194.44-39.78,193.56-53.56-1.12-17.3-119.22,2.71-119.22,2.71l-74.33,50.84Z"/>
      <path class="uuid-bf417b0e-da6c-4d54-b7b9-ef0aed575391" d="M355.98,183.4c-.61-34.73,22.18-36,24.84-88C383.49,43.4,350.82,2.06,295.49.06c-55.33-2-127.69,42.37-143.02,120.67-9.95,50.81,55.18,118.89-57.64,129.33-36,3.33-39.77-20.46-36-33.33,8-27.33,37.32-11.53,42.67,8,3.33-86.52-92-57.33-100,0-12.19,87.36,52.67,132.48,114.67,113.33,10,57.52-28,91.33-61.33,74.67-33.33-16.67,6.67-70,15.33-52.67-5.33-28.67-63.48-11.02-64.51,43.33-2.15,113.33,157.85,153.33,276.51,84.67,118.67-68.67,128.87-113.3,130.67-159.75,3.41-88.21-55.69-78.92-56.84-144.92Z"/>
      <path class="uuid-c85be0cc-24e9-436c-b436-2509e11bd3d5" d="M452.82,449.84c-12-32.67-100.67-111.78-110.67-121.78s-26-6.67-50.67-36.67c-24.67-30-22-81-7.33-84.67,12.67-4.67,59.33-24.67,64-57.33,4.67-32.67-22-32-10-93.33-33-6.15-62,12-82.67,25.33-20.67,13.33-46.84,45.56-26.67,90,20.01,44.09,28.67,61.33,24.67,91.33s-19.78,59.78-36,65.33c-2.63.9-10.46,3.09-28.67,28-25.68,35.12-63.47,97.72-62,112.67.31,3.17.97,6.43,1.91,9.75,5.8.16,11.64-.23,17.47-.75-1.8-4.66-2.81-8.47-2.71-11.01.67-17.33,59.81-76.53,64.67-78,.33,22.67,3,36.67,3.81,62.79.04,1.27-.95,2.36-.78,3.62l8.97,67.25,134.67-21.67-9-101.33-12.33-40c10,3.33,97.56,68.44,102.89,90.44.85,3.5-25.4,39.9-26.98,45.31,4.6.35-3.6,12.57.97,12.75,11.24-3.62,44.7-51.96,42.46-58.06Z"/>
      <path class="uuid-c85be0cc-24e9-436c-b436-2509e11bd3d5" d="M222.61,616.78c-8,29.33-75.79,182.39-79.79,202.39s2.67,21.33-2.67,25.33c-5.96,4.47-34.33,10.97-39.67,8.97-2.52-.94-19.5-2.88-11.67-6.41,8.76-3.94,34.44-13.89,37.96-16,6.67-4,70.04-203,70.04-203l25.79-11.28Z"/>
      <path class="uuid-c85be0cc-24e9-436c-b436-2509e11bd3d5" d="M336.24,583.29s51.27,243,49.94,247c-1.33,4,11.17,33.95,15.11,36,5.33,2.78,8.97-3.19,17.88-5.47,4.62-1.18,3.92-7.34.1-10.2-9.67-7.22-22.46-17.66-23.31-20.78-1.33-4.89-33.24-249.99-33.24-249.99l-26.47,3.44Z"/>
      <ellipse class="uuid-bf417b0e-da6c-4d54-b7b9-ef0aed575391" cx="288.95" cy="105.53" rx="6.15" ry="8.69"/>
      <ellipse class="uuid-bf417b0e-da6c-4d54-b7b9-ef0aed575391" cx="330.96" cy="115.86" rx="5.3" ry="7.68"/>
      <path class="uuid-6f06161e-3070-414b-8b0d-96bbf7146a2f" d="M322.17,138.88c-5.98,0-18.54-4.78-22.91-6.52-.36-.15-.54-.56-.4-.92s.56-.54.92-.4c10.57,4.2,22.83,7.72,24.2,6.07,1.09-1.31-.52-11.23-1.94-19.97-1.62-9.97-3.46-21.26-3.33-29.08,0-.39.34-.71.72-.7.39,0,.7.33.7.72-.12,7.7,1.7,18.93,3.31,28.83,2,12.33,3.07,19.38,1.63,21.11-.5.6-1.53.85-2.9.85Z"/>
      <ellipse class="uuid-b439fe78-a5c9-4c17-bf73-318f42d75d02" cx="311.03" cy="152.69" rx="6.61" ry="14.63" transform="translate(65.51 397.18) rotate(-71.03)"/>
      <path class="uuid-6f06161e-3070-414b-8b0d-96bbf7146a2f" d="M328.01,105.4c-.66,0-1.25-.47-1.39-1.14-.15-.77.34-1.51,1.11-1.67,3.1-.62,5.54-2.06,8.12-3.59,3.51-2.08,7.14-4.22,12.5-4.27h.01c.78,0,1.41.63,1.42,1.41,0,.78-.62,1.42-1.41,1.43-4.6.04-7.75,1.9-11.08,3.87-2.67,1.58-5.43,3.22-9.01,3.93-.09.02-.19.03-.28.03Z"/>
      <path class="uuid-6f06161e-3070-414b-8b0d-96bbf7146a2f" d="M299.18,101.49c-.27,0-.55-.08-.79-.24-2.04-1.38-3.36-3.55-4.64-5.65-2.87-4.72-5.59-9.18-16.32-7.24-.77.14-1.51-.37-1.65-1.14-.14-.77.37-1.51,1.14-1.65,12.65-2.29,16.31,3.73,19.24,8.56,1.17,1.92,2.27,3.74,3.8,4.77.65.44.82,1.32.38,1.97-.27.41-.72.62-1.18.62Z"/>
      <path class="uuid-6f06161e-3070-414b-8b0d-96bbf7146a2f" d="M326.93,157.66s-.04,0-.05,0c-13.85-1.01-43-16.7-50.22-24.46-.27-.29-.25-.73.04-1,.28-.27.73-.25,1,.04,7.09,7.62,35.7,23.03,49.29,24.02.39.03.68.37.66.76-.03.37-.34.66-.71.66Z"/>
      <g>
        <path class="uuid-c85be0cc-24e9-436c-b436-2509e11bd3d5" d="M231.36,112.95c-7.65-22.44-44.09,6.44-4.76,28.11"/>
        <path class="uuid-6f06161e-3070-414b-8b0d-96bbf7146a2f" d="M226.6,141.77c-.12,0-.23-.03-.34-.09-19.2-10.58-18.94-21.85-17.94-26.21,1.42-6.17,6.88-11.04,12.71-11.34,5.04-.26,9.06,2.87,11,8.59.13.37-.07.77-.44.9-.37.13-.77-.07-.9-.44-1.73-5.08-5.23-7.85-9.59-7.63-5.21.27-10.11,4.67-11.4,10.24-.93,4.04-1.11,14.54,17.24,24.65.34.19.47.62.28.96-.13.23-.37.37-.62.37Z"/>
      </g>
      <path class="uuid-6f06161e-3070-414b-8b0d-96bbf7146a2f" d="M218.6,127.66c-.26,0-.51-.14-.63-.39-3.2-6.4-.41-12.47,3.83-14.93.34-.2.77-.08.97.26.2.34.08.77-.26.97-3.69,2.14-6.09,7.44-3.28,13.07.18.35.03.78-.32.95-.1.05-.21.08-.32.08Z"/>
      <path class="uuid-cd1ed453-0ee8-4a05-a26a-9ffd83b8186e" d="M229.79,315.88s-20.35,5.97-13.68,12.63c6.67,6.67,35.21,87.2-8.45,119.72-1,4.99,1.83,17.83,1.83,17.83,0,0,2,23.33,0,42.67s-28.67,124.67-34,138.67c16.67-2,73.56-56.89,193.56-53.56-3.27-30.18-.09-89.5-11.56-120.44-11.46-30.95-9.6-28.59-5.67-35.33,7-12,1-38.33-11.67-58.33-9.15-14.45-55.72-23.22-76.54-29.79-22.31-7.05-33.82-34.06-33.82-34.06Z"/>
      <path class="uuid-55359203-1ced-4802-bafa-e768fd616c89" d="M206.72,465.88c.44,7.11,2.76,4.36.77,7.68-2.5,4.17,2.47,14.91,2.88,13.16,6.2-26.72,139.84-39.84,145.47-17.82.93,3.65-2.93-10.03-4.18-17.01-5.17-28.83-144.77-16.33-144.93,13.98Z"/>
      <path class="uuid-36fa5a26-e9ef-4667-ad48-3fc0950cdfd0" d="M330.96,421.06c-15.64,0-28.31,13.3-28.31,29.71s12.68,29.71,28.31,29.71,28.31-13.3,28.31-29.71-12.68-29.71-28.31-29.71ZM334.87,466.23c-8.14,0-14.73-6.92-14.73-15.46s6.6-15.46,14.73-15.46,14.73,6.92,14.73,15.46-6.6,15.46-14.73,15.46Z"/>
      <path class="uuid-0da99c41-bc5b-4558-81ae-2eb48c67c4bd" d="M101.7,854.95c-.74,0-1.47-.02-2.18-.06l.19-3.33c11.85.66,28.47-4.71,39.7-10.32l1.49,2.98c-10.96,5.48-26.97,10.73-39.2,10.73Z"/>
      <path class="uuid-0da99c41-bc5b-4558-81ae-2eb48c67c4bd" d="M86.39,846.62c2.71-3.17,12.37-4,17.76,4.44,1.78,2.78,34.78-8.33,37.87-17.44.97,4.21,1.21,10.2,0,11.1s-35.87,13.46-39.09,13.9c-3.22.44-15.87-4.22-16.16-6.33s-1.07-4.86-.38-5.67Z"/>
      <path class="uuid-0da99c41-bc5b-4558-81ae-2eb48c67c4bd" d="M111.6,851.95c.08.34,10.06-1.37,9.78-3-1.11-6.44-8.38-10.57-12.44-10.89-2.11-.17-10.78,4.67-10.78,4.67,0,0,11.56,1.33,13.44,9.22Z"/>
      <path class="uuid-0da99c41-bc5b-4558-81ae-2eb48c67c4bd" d="M131.65,820.55c.14-.37.9-4.03,1.78-4.68s15.68-12.02,15.68-12.02l-1.54,4.12-15.92,12.58Z"/>
      <path class="uuid-0da99c41-bc5b-4558-81ae-2eb48c67c4bd" d="M139.14,799.97c.14-.37.9-4.03,1.78-4.68s15.68-12.02,15.68-12.02l-1.54,4.12-15.92,12.58Z"/>
      <path class="uuid-0da99c41-bc5b-4558-81ae-2eb48c67c4bd" d="M146.8,779.59c-.14.38-1.98,3.62-1.74,4.69s3.87,19.38,3.87,19.38l1.56-4.11-3.68-19.96Z"/>
      <path class="uuid-0da99c41-bc5b-4558-81ae-2eb48c67c4bd" d="M139.42,801.09c-.14.38-1.98,3.62-1.74,4.69.23,1.07,3.87,19.38,3.87,19.38l1.56-4.11-3.68-19.96Z"/>
      <path class="uuid-0da99c41-bc5b-4558-81ae-2eb48c67c4bd" d="M394.44,819.07c-.07-.4-.09-4.13-.82-4.94s-13.01-14.87-13.01-14.87l.7,4.34,13.14,15.47Z"/>
      <path class="uuid-0da99c41-bc5b-4558-81ae-2eb48c67c4bd" d="M391.67,797.02c-.07-.41,0-4.27-.85-5.14s-15.05-16.06-15.05-16.06l.72,4.52,15.18,16.69Z"/>
      <path class="uuid-0da99c41-bc5b-4558-81ae-2eb48c67c4bd" d="M388.5,774.74c.05.41,1.23,4.11.71,5.12s-9.2,18.49-9.2,18.49l-.65-4.49,9.14-19.12Z"/>
      <path class="uuid-0da99c41-bc5b-4558-81ae-2eb48c67c4bd" d="M391.55,797.46c.06.4,1.21,3.95.75,4.97s-7.97,18.44-7.97,18.44l-.68-4.35,7.9-19.05Z"/>
      <path class="uuid-0da99c41-bc5b-4558-81ae-2eb48c67c4bd" d="M397.98,858.36c4.76-3.36,15.27-8.67,19.93-8.75,3.13-.05,4.54,3.26,5.17,6.17.53,2.43-.64,4.9-2.85,6.03-5.2,2.67-16.59,7.84-19.39,5.71-7.44-5.67-14.85-27.37-14.69-30.89.17-3.52.02-6.33.02-6.33,0,0,10.87,28.73,11.81,28.07Z"/>
      <path class="uuid-0da99c41-bc5b-4558-81ae-2eb48c67c4bd" d="M394.44,852.84c2.71-6.89,13.76-8.7,16.46-8.68-.75-2.43-5.3-5.43-5.3-5.43,0,0-10.44-2.11-14.67,6-1.02,1.96,3.51,8.11,3.51,8.11Z"/>
      <g>
        <path class="uuid-c85be0cc-24e9-436c-b436-2509e11bd3d5" d="M359.8,475.46v.17c.08-.04.03-.07,0-.17Z"/>
        <path class="uuid-c85be0cc-24e9-436c-b436-2509e11bd3d5" d="M419.71,499.8c.87-2.96.28-6.13-2.36-7.82-.83-.51-1.08-1.2-1.91-1.36-18.19-3.67-39.93,5.96-52.03-10.45-.73-1.09-1.88-2.85-3-1.43-3.43,4.24-.52,11.04,3.21,14.12.5.73-.11,1.08-.81,1.54-3.58,2.08-7.3,4.76-10.04,8.56-.77,1.05-1.13,1.95-1.68,3.12-1.42,2.92-3.95,6.84-4.7,9.98-.47,1.71-.31,3.61,1.78,3.08,7.67-1.49,11.57-17.24,20.99-17.15.18.28-.2.8-.39,1.11-.97,1.23-2,3.57-2.12,4.93-.38,3.83-1.8,8.23-1.7,12.1-.01,1.19.33,1.68.85,2.7,1.5,3.4,3.9,9.55,6,12.99.81,1.48,1.8.61,2.4-.59,4.72-8.7-3.95-16.46,2.59-26.75.56-.84.93-1.03.93-.06-.34,4.11-.18,8.72,1.64,12.62.79,2.06,1.59,4.83,3.02,6.35.79.92,2.36,1.18,3.87,1.93,2.66,1.12,6.4,2.47,8.93,3.1,4.41-.9,8.35-.6,13.7-2.03.95-.27,2.31-.56,2.72-1.42.16-3.13-8.42-4.13-10.64-4.4-1.87-.11-3.07-1.92-4.31-3.22-.79-.8-1.05-1.82-1.36-2.88-.4-1.21-.55-2.45.3-3.39,1.98-2.52,11.2-2.47,15.47-5.91,2.67-2,8.48-5.72,8.62-9.19l.03-.17ZM347.04,518.2l-.06.05s.01-.07,0-.11c.05,0,.13.03.17.06h-.11ZM380.59,495.37c0-.06-.04-.12-.11-.17.15-.03.1.08.11.17ZM394,513.19c.14-.1.25-.23.34.01h-.34Z"/>
      </g>
      <path class="uuid-c85be0cc-24e9-436c-b436-2509e11bd3d5" d="M215.49,517.46c-.12-1.4-1.71-4.46-3.01-2.62-1.13,2-2.25,4.01-4.44,4.82-3.59,1.52-8.42.45-12.85.05-2.02-.18-4.22-.52-6.13-1.14-3.82-1.19-6.72-3.07-10.96-3.68-7.6-1.62-15.59-.2-23.27.25-1.6.14-8.84-41.32-9.84-40.24-2.22,2.98-16.51-.23-16.26,3.58.09,1.25,20.84,52.63,21.62,53.68,2.09,3,6.4,5.88,8.99,8.68,2.42,2.79,7.75,11.14,11.09,15.05.24.29.9,1.03,1.02.77.13-.09.31-.21.79.07,10.03,7.78,15.01,13.55,16.93,27.51,1.09,6.46,4.25-1.26,4.15-3.92.19-1.63.85,2.73.97,3.19.38,1.68.24,5.03,2.33,2.14,6.85-8.8,1.68-23.76-5.1-31.51-1.92-2.95-3.86-5.81-5.95-8.93-.78-1.26.48-.39,1.05.04,9.13,6.68,13.98,16.73,16.98,27.08.91,1.87,2.31-2.44,2.64-3.29,1.17-3.56,1.41-7.98.73-11.37-1.68-6.24-5.6-11.21-10.31-15.59-1.48-1.35-2.26-2.91-3.45-4.71-1.33-2.05-2.93-4.43-4.33-6.34-.34-.47-.59-.88-.58-1.18,0-.33.32-.52.89-.63,1.03-.17,2.41-.3,3.54-.4,2.26-.18,4.55-.31,6.62.61,1.23.48,2.45.99,3.75,1.15,2.2.1,4.91.45,6.96-.51,4.45-2.06,5.82-8.08,5.43-12.47l-.02-.16ZM202.84,521.91l-.03.12-.03-.14.06.02ZM178.62,550.97c.09,0,.16.07.23.13l-.19.21c0-.12,0-.23-.04-.34Z"/>
    </g>
  </g>
</svg>