<?xml version="1.0" encoding="UTF-8"?>
<svg id="uuid-d63b812e-99d9-46a9-a294-3eae0b75fdd0" data-name="Capa 2" xmlns="http://www.w3.org/2000/svg" viewBox="0 0 315 916.99">
  <defs>
    <style>
      .uuid-40808820-e1c0-4416-bf26-ea7831a1e8f6 {
        fill: #80621c;
      }

      .uuid-ec9702ef-d258-48c8-bd9c-05a00b4ec1d9 {
        fill: #998f7a;
      }

      .uuid-f5eb3b19-6829-4394-981f-8d1f90409c42 {
        fill: #ffde92;
      }

      .uuid-798588c7-4bfa-4b73-b06b-7566c0a5a957 {
        fill: #bf922a;
      }

      .uuid-164e7b7d-b511-4e89-8ffa-d33c8d6831d1 {
        fill: #e9b01d;
      }

      .uuid-6e803da1-0d15-4451-aadc-a2055526595f {
        fill: #e0d9c9;
      }

      .uuid-eac16d66-c5e0-458e-bd63-260ff3beeadf {
        fill: #59471d;
      }

      .uuid-35418aad-829c-4b88-b64f-e6870bdb85da {
        fill: #40310e;
      }

      .uuid-21d97f8c-91a9-4da1-9a9c-9b226056c251 {
        fill: #f0e8d7;
      }

      .uuid-043c614f-2fc0-4ff6-a1ab-d9e896438104 {
        fill: #ffc338;
      }

      .uuid-6d1dd6f9-fc12-48f1-bd97-20ce678db7d4 {
        fill: #e0d2b0;
      }
    </style>
  </defs>
  <g id="uuid-2a38e2ff-5f02-4be0-b7a1-38290aacc024" data-name="Capa 1">
    <g>
      <path class="uuid-164e7b7d-b511-4e89-8ffa-d33c8d6831d1" d="M36.7,440.45l26-60.14,4.55-56.29c-33.78,14.05-35.83,94.77-45.85,112.73-9.84,17.63-12.74,114.7-12.58,135.96-.21.76-.31,1.65-.26,2.66l.52,4.12c.31,4.36.86,8.85,1.6,13.25-.62,8.44-2.88,26.55-1.82,37.7.01-.21.04-.43.07-.66-.02,1.04.26,3.96.38,4.1,3.62,4.77,7.57,12.25,10.01,19.71.74,1.43,3.18,8.84,4.74,9.55,0,0,0-.03.03-.08,6.21,3.12,12.45,8.72,18.41,13.57,2.76-1.06,5.45-3.94,4.78-7.15-1.77-5.15-9.02-10.45-13.62-12.26-3.35-4.18-5.69-13.26-6.12-17.92-.76-7.26,5.62-14.39,5.08-21.03,1.18,6.94,6.12,15.83,14.46,13.95.52.12,2.04-.82,3.27-1.36-.05-.03-.09-.06-.11-.09,3.77-2.14,4.26-7.05,1.99-10.32.06.01.13,0,.2-.01-.1-.02-.46-.81-.51-.9l-.06.02c-.17-.19-.32-.38-.45-.58-2.59-.66-4.08-1.6-5.39-3.9-8.68-8.05-4.78-25.89-19.5-26.59.06.03-2.19-1.09-2.61-14.04-.02-.52-.18-1.02-.44-1.51h0s13.23-132.47,13.23-132.47Z"/>
      <ellipse class="uuid-f5eb3b19-6829-4394-981f-8d1f90409c42" cx="157.5" cy="883.54" rx="157.5" ry="33.44"/>
      <path class="uuid-eac16d66-c5e0-458e-bd63-260ff3beeadf" d="M43.59,36.54C50.7,15.21,92.04-8.79,140.92,3.21c48.89,12,33.78,75.56,38.67,87.11,4.89,11.56,31.11,89.78,26.67,119.11-4.44,29.33-12.44,46.67-22.67,59.56-1.78-18.22-7.56-22.67-15.11-32.44-.44,9.78,3.11,36-8.44,42.67-10.67-5.78-30.19-14.67-30.19-14.67l-6.37,17.26-31.44-32.37s-28.89,18.22-33.33,35.11c-16.89-18.22-25.33-36.89-28.89-48.89-5.55-18.74-6.22-116.44-6.22-116.44l20-82.67Z"/>
      <path class="uuid-043c614f-2fc0-4ff6-a1ab-d9e896438104" d="M241.48,511.65c-5.3-35.31-44.14-134.17-74.15-188.9-6.37-11.61-23.83-6.18-35.31-21.18-11.48-15.01-14.12-44.14-7.06-82.97,7.06-38.84,37.96-157.12,37.96-157.12,0,0-117.88-27.68-123.58-5.3-9.94,39.04-16.31,36.67-18.77,53.71-6.69,46.3,43.49,113.12,43.49,113.12,0,0,21.19,18.54,22.95,39.72,1.77,21.18-7.94,45.9-22.07,64.44-14.12,18.54-10.59,50.31-14.12,67.97-3.53,17.65-28.25,42.37-33.54,59.14s-.77,37.18,1.88,40.71c2.65,3.53,168.89,11.11,168.89,11.11,0,0,5.77-5.03,6.66-20.92s-8.49-24.9-16.44-63.74c7.94,7.94,45.85,83.22,47.33,94.64.64,4.91.71,20.13-2.16,53.13,6.29.96,10.19,1.47,16.48,2.03,1.02-20.34,4.08-42.84,1.57-59.57Z"/>
      <path class="uuid-eac16d66-c5e0-458e-bd63-260ff3beeadf" d="M20.21,112.98c-13.82,50.22-16.84,97.01-2.18,125.9,14.44-20,30.76,2.79,38.32,13.01,7.56-30.89,44.06-15.34,44.13-5.56,12.89-14.22,26.74-49.33,37.78-34.67,15.56-23.11,4.54-48.16,14.32-109.94-17.1,21.22-19.61,43.28-51.87,29.83-11.29-4.71-29.64.07-47.42.52-21.26.53-31.41,1-33.07-19.08Z"/>
      <ellipse class="uuid-35418aad-829c-4b88-b64f-e6870bdb85da" cx="80.92" cy="87.99" rx="6.67" ry="11.22"/>
      <ellipse class="uuid-35418aad-829c-4b88-b64f-e6870bdb85da" cx="38.12" cy="84.49" rx="5.64" ry="9.5"/>
      <g>
        <path class="uuid-043c614f-2fc0-4ff6-a1ab-d9e896438104" d="M55.46,65.55c-12.49,5.41-21.15,45.26-19.9,58.38,12.28,5.62,24.65,4.73,26.56,1.87,2.88-4.3,1.67-9.78,1.67-9.78"/>
        <path class="uuid-40808820-e1c0-4416-bf26-ea7831a1e8f6" d="M53.53,128.77c-5.14,0-11.75-1.21-18.27-4.19l-.37-.17-.04-.41c-1.25-13.15,7.52-53.55,20.33-59.1l.56,1.3c-11.93,5.17-20.49,44.3-19.51,57.25,12.54,5.61,23.85,4.12,25.3,1.95,2.67-3.99,1.57-9.19,1.56-9.24l1.38-.31c.05.24,1.24,5.83-1.77,10.33-1.05,1.57-4.5,2.57-9.18,2.57Z"/>
      </g>
      <path class="uuid-40808820-e1c0-4416-bf26-ea7831a1e8f6" d="M53.73,155.82c-1.48,0-2.73-1.16-2.83-2.66-.1-1.56,1.09-2.91,2.65-3,19.68-1.22,25.02-5.94,31.79-11.9l.83-.73c1.18-1.03,2.97-.92,4,.26,1.03,1.18.92,2.97-.26,4l-.82.72c-7.28,6.42-13.56,11.97-35.19,13.31-.06,0-.12,0-.18,0Z"/>
      <path class="uuid-6d1dd6f9-fc12-48f1-bd97-20ce678db7d4" d="M177.15,69.21c8-12.67,16.44-17.78,31.56-19.11,15.11-1.33,9.33,14.67,20,13.78,10.67-.89,18.22-10,22.22-15.11-2.22,6.22-12,35.72-12,35.72,0,0-8.22,3.17-17.78-10.83s-40.67,10.83-40.67,10.83l-3.33-15.28Z"/>
      <path class="uuid-6d1dd6f9-fc12-48f1-bd97-20ce678db7d4" d="M177.15,91.21c11.56-3.56,20.89-8.35,24.44,2.83,3.56,11.17-1.33,37.62,31.33,29.17l12.22-17.25s-29.11,11.25-34-10.31c-4.89-21.56-13.56-28.87-13.56-28.87l-23.56,6.43,3.11,18Z"/>
      <path class="uuid-21d97f8c-91a9-4da1-9a9c-9b226056c251" d="M50.12,25.54c-1.27-.93-4.76,4.44-6.36,7.91-1.34,2.92-4.51,6.3-5.77,10.42-1.98,6.48.04,10.58-.83,14.45-1.48,6.56,139.08,37.1,143.86,35.66,1.95-.59,1.86-5.85,1.05-12.04-1.17-8.98-3.86-19.91-3.99-21.36-.22-2.44-111.85-23.27-127.96-35.04Z"/>
      <path class="uuid-40808820-e1c0-4416-bf26-ea7831a1e8f6" d="M49.34,76.83c-.93,0-1.86-.41-2.49-1.19-2.14-2.65-8.17-4.35-13.99-6-2.64-.75-5.37-1.52-7.9-2.42-1.67-.59-2.54-2.43-1.94-4.1.59-1.67,2.43-2.53,4.1-1.94,2.32.83,4.95,1.57,7.49,2.29,7.1,2.01,13.8,3.91,17.23,8.13,1.11,1.38.9,3.39-.47,4.51-.59.48-1.31.71-2.01.71Z"/>
      <path class="uuid-40808820-e1c0-4416-bf26-ea7831a1e8f6" d="M67.26,82.08c-1.84,0-3.53-1.2-4.08-3.05-.67-2.25.62-4.62,2.87-5.28,18.38-5.43,33.62-5.84,34.26-5.85,2.32-.05,4.29,1.81,4.35,4.15.05,2.35-1.81,4.29-4.15,4.35-.14,0-14.81.41-32.05,5.51-.4.12-.81.18-1.21.18Z"/>
      <path class="uuid-164e7b7d-b511-4e89-8ffa-d33c8d6831d1" d="M165.37,655.21c12.67,28.67,66,174.67,66.67,184,.67,9.33-6.29,12-3.67,20.33,1.6,5.09,41,24,41,24,0,0,25.33-7.67,20-15-3.58-4.93-22.81-15.87-35.04-22.52-6.58-3.58-11.37-9.72-13.24-16.97-9.95-38.72-41.89-162.6-46.39-173.84-5.33-13.33-29.33,0-29.33,0Z"/>
      <path class="uuid-164e7b7d-b511-4e89-8ffa-d33c8d6831d1" d="M67.25,660.54c-5.88,27.56-3.22,112.89,3.89,148.89,7.11,36,15.56,40.89,15.11,47.11-.44,6.22-30.67,37.57-36,39.35s-24-3.33-25.78-8.11c-.98-2.64,12.18-13.67,24.16-23,11.54-8.99,17.1-23.67,14.37-38.04-9.66-50.79-31.05-153.74-28.38-166.19,3.24-15.11,32.62,0,32.62,0Z"/>
      <path class="uuid-798588c7-4bfa-4b73-b06b-7566c0a5a957" d="M139.57,410.43c-12.46,0-29.34-3.26-32.14-8.04-2.8-4.77-2.7-24.48.24-47.93l1.41.18c-3.24,25.83-2.66,43.22-.42,47.04,3.27,5.58,32.4,9.77,41.57,5.97l.54,1.31c-2.45,1.01-6.51,1.48-11.19,1.48Z"/>
      <path class="uuid-798588c7-4bfa-4b73-b06b-7566c0a5a957" d="M80.82,402.53c-8.02,0-20.6-4.26-22.59-6.77l1.11-.88c2.08,2.62,21.12,8.35,25.94,5.39,4.16-2.56,5.71-38.57,5.71-45.73h1.42c0,.43-.78,43.48-6.39,46.94-1.2.74-3.03,1.05-5.2,1.05Z"/>
      <circle class="uuid-798588c7-4bfa-4b73-b06b-7566c0a5a957" cx="127.22" cy="392.56" r="3.56"/>
      <circle class="uuid-798588c7-4bfa-4b73-b06b-7566c0a5a957" cx="70.89" cy="384.33" r="3.64"/>
      <path class="uuid-ec9702ef-d258-48c8-bd9c-05a00b4ec1d9" d="M15.31,487.63c77.33,21.33,138.57,19.29,174.28,16.68,8.84,20.41,13.04,160.96,13.93,161.4s-66.6,50.82-98.18,2.7c-14.52-22.12-62.69,26.19-80.91-19.14-8.08-20.11-9.12-161.65-9.12-161.65Z"/>
      <path class="uuid-35418aad-829c-4b88-b64f-e6870bdb85da" d="M16.6,471.06c15.57,11.33,105.51,37.16,176.4,25.16-1.41,12.32,4.81,34.32,3.92,35.88s-143.11,0-181.11-31.56c-2.67-3.33-3.32-32.47.78-29.48Z"/>
      <path class="uuid-35418aad-829c-4b88-b64f-e6870bdb85da" d="M28.87,487.63h-5.67c0-17.36,46.16-84.94,55.41-98.31,5.65-8.17,53.28-76.18,66.2-78.34,4.79-.8,11.17,1.87,12.69,4.63l-5.35-1.52c-1.66-.99-3.21-.88-4.19-1.18-.84.23-5.9,2.5-23.77,24.47-11.86,14.58-26.39,34.17-40.92,55.16-32.03,46.29-54.4,85.39-54.4,95.09Z"/>
      <path class="uuid-6e803da1-0d15-4451-aadc-a2055526595f" d="M66.35,478.5c13.26,0,24,11.28,24,25.19s-10.75,25.19-24,25.19-24-11.28-24-25.19,10.75-25.19,24-25.19ZM63.04,516.8c6.9,0,12.49-5.87,12.49-13.11s-5.59-13.11-12.49-13.11-12.49,5.87-12.49,13.11,5.59,13.11,12.49,13.11Z"/>
      <path class="uuid-043c614f-2fc0-4ff6-a1ab-d9e896438104" d="M240.04,570.21c.52-11.79-16.42-6.87-16.61-1.01-.45,14-2.88,15.21-2.82,15.18-15.92.76-11.69,20.05-21.08,28.75-1.42,2.49-3.03,3.51-5.83,4.22-.14.21-.31.42-.49.63l-.06-.03c-.06.1-.44.96-.56.98.08.02.15.03.22.02-2.45,3.54-1.92,8.84,2.15,11.16-.02.04-.06.07-.12.1,1.33.59,2.98,1.6,3.54,1.47,9.02,2.02,14.35-7.58,15.63-15.09-.59,7.17,6.31,14.88,5.49,22.73-.47,5.04-3,14.86-6.62,19.38-4.97,1.96-12.81,7.69-14.72,13.26-.73,3.47,2.18,6.58,5.16,7.73,6.44-5.24,13.19-11.29,19.91-14.67.03.06.04.09.04.09,1.69-.76,4.32-8.77,5.12-10.32,2.64-8.07,6.91-16.16,10.82-21.31.12-.15.44-3.31.41-4.43.04.24.06.48.08.71,1.16-12.25-1.38-32.28-2-41.2l2.33-18.33Z"/>
      <path class="uuid-164e7b7d-b511-4e89-8ffa-d33c8d6831d1" d="M212.89,658.69c3.62-4.52,6.15-14.34,6.62-19.38-.75.52-4.96,3.67-5.52,4.2-6.3,6.02-22-1.39-24.13,9.21-4.25,1.85-5.07,10.43.74,10.19-1.84,2.75-3.07,7.01-1.02,10.07,2.86.2,5.78-.4,8.58-1.04,1.91-5.57,9.75-11.3,14.72-13.26Z"/>
      <g>
        <path class="uuid-043c614f-2fc0-4ff6-a1ab-d9e896438104" d="M149.68,89.82c9.08-4.87,18.82,4.43,13.73,17.49s-19.27,12.4-23.47,9.52"/>
        <path class="uuid-40808820-e1c0-4416-bf26-ea7831a1e8f6" d="M147.04,119.26c-3.16,0-5.93-.76-7.5-1.84l.8-1.17c2.23,1.52,7.32,2.24,11.99.8,3.39-1.05,7.94-3.63,10.43-10,2.9-7.45.73-12.95-2.28-15.61-2.91-2.58-6.82-2.95-10.45-1l-.67-1.25c4.12-2.21,8.74-1.75,12.06,1.19,3.36,2.98,5.83,9.06,2.66,17.19-2.69,6.9-7.64,9.7-11.33,10.84-1.93.59-3.88.85-5.7.85Z"/>
      </g>
      <g>
        <path class="uuid-043c614f-2fc0-4ff6-a1ab-d9e896438104" d="M154.63,94.82c5.09-1.67,3.32,8.96,3.32,8.96"/>
        <path class="uuid-40808820-e1c0-4416-bf26-ea7831a1e8f6" d="M158.65,103.89l-1.4-.23c.41-2.48.56-6.86-.79-8.02-.14-.12-.57-.49-1.61-.15l-.44-1.35c1.49-.49,2.44-.04,2.98.42,2.4,2.06,1.39,8.59,1.26,9.33Z"/>
      </g>
    </g>
  </g>
</svg>