<?xml version="1.0" encoding="UTF-8"?>
<svg id="uuid-9e5f8091-6004-4486-8028-38c49087d514" data-name="Capa 2" xmlns="http://www.w3.org/2000/svg" xmlns:xlink="http://www.w3.org/1999/xlink" viewBox="0 0 308.47 887.15">
  <defs>
    <style>
      .uuid-224f7cea-e9ba-4752-8842-7be96d525786 {
        fill: #400f15;
      }

      .uuid-5a6360a1-04f9-41c7-8fca-ccf05ffdbe8d {
        fill: #bf2d3e;
      }

      .uuid-55671b1c-fb97-4898-82a8-99356f92d68c {
        clip-path: url(#uuid-807dc368-b3f4-40e8-bbc4-a69f89cf503c);
      }

      .uuid-e2589ffa-cfd7-4f9c-b6f8-d368025086e0 {
        fill: #86121f;
      }

      .uuid-e1f6610a-255d-448c-8197-56a1fd03bba2 {
        fill: #fff;
      }

      .uuid-189f2b24-5d09-44e5-aedb-7ffa60ae499c {
        fill: #801e29;
      }

      .uuid-3f2d6ff9-e801-44cc-b044-32ad2a3bc696 {
        fill: #bf922a;
      }

      .uuid-2f1c1be0-717a-4857-a711-53ccb7a0777e {
        fill: #ffafb8;
      }

      .uuid-b9d59a72-901a-42fb-9711-4997fe28c17c {
        fill: #ff3c52;
      }

      .uuid-d2747e6d-2fee-433d-954c-5d98eeb106f1 {
        fill: #a8a68c;
      }

      .uuid-5f03e1fc-937b-43a9-9262-1be27623a3fe {
        fill: #ffadb6;
      }

      .uuid-be8e9528-e389-4335-a42a-98304b4d14ba {
        fill: #e0ddbb;
      }
    </style>
    <clipPath id="uuid-807dc368-b3f4-40e8-bbc4-a69f89cf503c">
      <path class="uuid-e1f6610a-255d-448c-8197-56a1fd03bba2" d="M223.97,155.01c-43.42-45.8-108.16-56.13-136.21-7.58,5.78-17.33,17.88-40.68,28.06-46.89,28.96-17.67,53.07-17.67,92.41,10.67,10.42,12.67,15.89,29.56,15.75,43.8Z"/>
    </clipPath>
  </defs>
  <g id="uuid-1ad1333a-65f2-4d96-bfc8-07b017bf2dfb" data-name="Capa 1">
    <g>
      <ellipse class="uuid-5f03e1fc-937b-43a9-9262-1be27623a3fe" cx="140.67" cy="857.28" rx="140.67" ry="29.87"/>
      <path class="uuid-d2747e6d-2fee-433d-954c-5d98eeb106f1" d="M224.22,702.27c-2.72,8.37-9.04,22.67-46.61,50.12-13.37,9.77-43.11,26.98-79.72,35.14-47.86,10.68-19.42-48.04-19.42-48.04l145.75-37.22Z"/>
      <path class="uuid-224f7cea-e9ba-4752-8842-7be96d525786" d="M82.2,215.35c-16.86-1.7-53.31-17.26-44.86-57.7C-15.11,123.95,10.67,52.76,64,58.54c4-74.67,107.3-70.67,110.22-28.44,22.22-26.22,88.89-19.56,87.11,28.89,50.22-20,66.22,82.11,18.67,88,22.67,20.12,15.11,100.89-80.65,90.89-92.29-9.63-117.15-22.53-117.15-22.53Z"/>
      <path class="uuid-b9d59a72-901a-42fb-9711-4997fe28c17c" d="M176.89,541.21c10-80.67-16.67-188,12.33-273.33,29-85.33,35.35-107.46,33.35-118.12s-24.35-51.21-59.01-54.54c-34.67-3.33-61.33,16-74,50.67-10.94,29.93-28,114.67,58.67,126,4.21,36.27-10.39,84.89-35.63,93.06-11.87,3.84-17.07,22.26-23.83,36.19-37.43,77.06-53.87,139.41-47.2,238.08.22,3.21.47,6.39.75,9.54,44.77-5.24,89.31-11.51,134.21-13.48-2.14-35.81-2.63-69.86.38-94.06Z"/>
      <path class="uuid-e2589ffa-cfd7-4f9c-b6f8-d368025086e0" d="M114.71,204.15c-.13,0-.25,0-.37-.02-.39-.04-.67-.39-.63-.78.67-6.25,1.99-44.54,0-71.35-.03-.39.26-.73.65-.76.37-.03.73.26.76.65,1.92,25.92.76,62.55.07,70.8,1.91-.3,5.06-2.25,8.12-4.13,3.92-2.42,7.98-4.92,11.24-5.39.38-.06.75.21.8.6.06.39-.21.75-.6.8-2.97.42-7.08,2.96-10.7,5.19-3.8,2.34-7.1,4.38-9.36,4.38Z"/>
      <path class="uuid-5a6360a1-04f9-41c7-8fca-ccf05ffdbe8d" d="M199.91,824.28c-2.14-2.07-3.53-4.79-3.96-7.73-2.85-19.64-15.09-108.68-19.44-181.28-44.9,1.97-89.44,8.25-134.21,13.48,8.31,93.52,43.46,179.95,43.46,179.95l-25.15,18.09c-2.26,3.65-.58,8.45,3.46,9.89l5.32,1.9c3.15,1.13,6.66-.24,8.22-3.2l18.18-18.53c.88-.9,1.57-1.97,1.97-3.15,1.6-4.72,1.38-9.9-.67-14.5-10.38-23.35-38.77-113.62-32.21-151.32,8-46,101.33,44,101.33,46s13.73,91.89,16.4,107.22c2.02,11.59,13.46,20.69,23.61,33.08,2.96,3.61,8.28,4.15,11.89,1.18l5.44-4.47c3.6-2.96,3.82-8.39.48-11.63l-24.14-14.98Z"/>
      <path class="uuid-5a6360a1-04f9-41c7-8fca-ccf05ffdbe8d" d="M44.44,627.76c.98-7.24-4.27-10.9-8.51-16.78-4.14-6.6,1.09-17.01,2.77-24.13.05-.19.1-.37.14-.54,1.25-6.33.48-13.07-.25-19.34-.09-.53-.22-1.25-.67-1.33-.59.09-1.31-.42-1.81-.94-2.07-2.12,27.27-96.65,24.52-95.52-1.63.34-34.63,94.97-35.49,96.3-4.96,7.16-9.95,17.82-13.26,28.15-.59,1.86-.55,3.47-.35,5.47.66,6.04,1.67,11.47,1.93,16.12.38,2.15.97,4.54,2.45,6.15,1.61,1.43,2.98,2.25,4.64,3.83,2.6,2.3,5.64,5.16,8.24,7.29.49.38,1.31,1.03,1.74.34.55-.86-.05-2.81.11-3.31.06-.12.12-.18.27-.17,1.63.66,2.97,2.16,4.32,3.22.86.75,1.79,1.5,2.17.67.51-1.08-.36-2.85-.03-3.82.14-.12.46.05.91.39.95.68,2.76,2.44,3.86,2.2.64-.5.34-2.79.45-3.73.1-.82,1.42.41,1.8-.4l.06-.11ZM17.46,615.46c-.04-.05-.07-.1-.1-.12l.05-.02s.04.08.05.14ZM34.16,610.19s.06.04.08.08l-.05.02s-.02-.07-.03-.09ZM31.4,616.71s.05.05.08.08l-.05.02s-.01-.06-.03-.09Z"/>
      <ellipse class="uuid-224f7cea-e9ba-4752-8842-7be96d525786" cx="150.32" cy="176.05" rx="5.39" ry="11.33" transform="translate(-21.94 21.4) rotate(-7.59)"/>
      <ellipse class="uuid-224f7cea-e9ba-4752-8842-7be96d525786" cx="100.48" cy="187.31" rx="4.81" ry="10.12" transform="translate(-23.87 14.92) rotate(-7.59)"/>
      <path class="uuid-e2589ffa-cfd7-4f9c-b6f8-d368025086e0" d="M167.33,147.07c-.15,0-.31-.02-.46-.08l-26.67-9.11c-.74-.25-1.14-1.06-.88-1.8.25-.74,1.05-1.14,1.8-.88l26.67,9.11c.74.25,1.14,1.06.88,1.8-.2.59-.75.96-1.34.96Z"/>
      <ellipse class="uuid-5a6360a1-04f9-41c7-8fca-ccf05ffdbe8d" cx="124.54" cy="215.9" rx="8.83" ry="7.66" transform="translate(-60.74 49.19) rotate(-18.04)"/>
      <path class="uuid-e2589ffa-cfd7-4f9c-b6f8-d368025086e0" d="M82.89,160.4c-.44,0-.88-.21-1.15-.59-.46-.64-.31-1.52.33-1.98l15.56-11.11c.64-.45,1.52-.31,1.98.33.46.64.31,1.52-.33,1.98l-15.56,11.11c-.25.18-.54.26-.82.26Z"/>
      <path class="uuid-e2589ffa-cfd7-4f9c-b6f8-d368025086e0" d="M108.1,218.81c-.19,0-.38,0-.56,0-.39,0-.7-.33-.7-.72,0-.39.33-.67.72-.7,13.05.24,39.46-7.78,47.86-14.5.31-.24.75-.2,1,.11.24.31.19.75-.11,1-8.64,6.91-34.47,14.81-48.2,14.81Z"/>
      <path class="uuid-b9d59a72-901a-42fb-9711-4997fe28c17c" d="M84.83,167.7c-5.98-3.78-14.79,11.45-3.84,21.06"/>
      <path class="uuid-be8e9528-e389-4335-a42a-98304b4d14ba" d="M175.53,352.8c.05-.28,20.22,8.35,23.03,12.41,2,2.89-11.24,78.73,1.14,187.01s27.33,135.98,26.7,148.68c-.64,12.7-58.11,13.02-76.21,50.81-18.1,37.79-80.02,45.09-91.14,33.98s-47.94-81.81-36.38-180.04c11.56-98.22,68-201.11,68-201.11,29.74,16.36,71.56,17.33,84.86-51.74Z"/>
      <path class="uuid-b9d59a72-901a-42fb-9711-4997fe28c17c" d="M226.41,506.7c-1.64.92-6.89,29.89,9.81,17.7,10.79-7.88,52.67-38.64,52.67-49.53,0-11.92-84.67-105.01-90.33-109.67l-3.09,46.42c26.86,15.91,70.08,55.91,71.53,64.35,2.11,12.27-33.2,26.58-40.58,30.72Z"/>
      <g>
        <path class="uuid-b9d59a72-901a-42fb-9711-4997fe28c17c" d="M228.9,505.91c.12-.03.19-.06.23-.07-.08.02-.15.05-.23.07Z"/>
        <path class="uuid-b9d59a72-901a-42fb-9711-4997fe28c17c" d="M239.58,515.1v-.06c-.08-.46-.17-.92-.28-1.37-.02.38-.05.75-.09,1.11-1.76-4.86-5.2-7.81-10.31-8.86-4.58,1.28-12.01,4.53-22.27,9.76-7.37,3.73-12.23,6.58-14.58,8.54.03-.1.07-.2.09-.3-1.02.31-2.05,2.07-3.09,5.29-.55,1.47-1.43,3.44-2.63,5.89-.66,1.24-1.35,2.53-2.09,3.88-.03.31-.08.66-.15,1.06l.02.99s-.06.16-.2.42l.02.23c.09-.11.18-.23.26-.37-.04,4.14.02,7.22.17,9.22.1,1.36.18,2.43.24,3.23.01.05.02.11.01.17,0,.12.04.23.08.34,0,.07,0,.13.01.17l.19.28s.24.44.62,1.23c.29.16.52.3.67.41,0-.06,0-.11-.01-.17.95.82,2.33,1.72,4.16,2.71,2.06,1.12,4.04,1.99,5.95,2.63.29-.03.44-.27.47-.73.03-.44.02-.83-.03-1.16h.06c.07.05.13.08.18.1,0,0,0-.03,0-.06.04-.04.09-.08.17-.13.2.06.38.13.54.19.44.21.79.32,1.07.33.45.45.91.84,1.37,1.17.52.23,1.04.46,1.56.7,1.64.73,3.29,1.03,4.95.9.16-.01.32-.02.46-.03.33-.02.64-.07.92-.13,1.6,1.38,3.64,2.04,6.13,1.98l.18.04,1.08-1.07c1.14-1.33,1.95-2.67,2.43-4.02.6-1.75.86-3.51.76-5.29-.05-.69-.1-1.35-.15-1.96-.1-.84-.23-1.71-.37-2.59-.09-.19-.16-.36-.21-.51-.16.01-.35.03-.58.04-.04,0-.1,0-.17.01l-.05.06c-.48.21-1.18.94-2.1,2.19-.38.53-.69,1-.94,1.41.22-2.47.56-4.88,1.02-7.22.07,0,.12,0,.17-.01.58-.35.99-.59,1.22-.73h.06c.33-.03,2.19-1.12,5.56-3.27.81-.56,1.62-1.11,2.43-1.64,1.41-.76,2.77-1.58,4.06-2.46,4.1-2.13,7.12-5.26,9.05-9.4,2-4.2,2.63-8.58,1.91-13.16ZM197.07,558.34v-.12c.18.16.39.32.61.48-.2-.14-.41-.26-.61-.36Z"/>
      </g>
      <path class="uuid-3f2d6ff9-e801-44cc-b044-32ad2a3bc696" d="M183.18,349.54c-11.53.49-20.51,9.49-20.06,20.11.45,10.62,10.16,18.82,21.69,18.34,11.53-.49,20.51-9.49,20.06-20.11-.45-10.62-10.16-18.82-21.69-18.34ZM186.4,378.17c-5.64.24-10.4-3.78-10.62-8.98s4.18-9.6,9.82-9.84c5.64-.24,10.4,3.78,10.62,8.98.22,5.2-4.18,9.6-9.82,9.84Z"/>
      <g>
        <path class="uuid-e1f6610a-255d-448c-8197-56a1fd03bba2" d="M223.97,155.01c-43.42-45.8-108.16-56.13-136.21-7.58,5.78-17.33,17.88-40.68,28.06-46.89,28.96-17.67,53.07-17.67,92.41,10.67,10.42,12.67,15.89,29.56,15.75,43.8Z"/>
        <g class="uuid-55671b1c-fb97-4898-82a8-99356f92d68c">
          <g>
            <rect class="uuid-2f1c1be0-717a-4857-a711-53ccb7a0777e" x="88.87" y="109.92" width="48.59" height="8.5" transform="translate(-36.24 173.49) rotate(-66.91)"/>
            <rect class="uuid-2f1c1be0-717a-4857-a711-53ccb7a0777e" x="114.35" y="100.5" width="41.65" height="8.5" transform="translate(5.94 216.76) rotate(-78.69)"/>
            <rect class="uuid-2f1c1be0-717a-4857-a711-53ccb7a0777e" x="131.75" y="100.62" width="45.25" height="8.5" transform="translate(39.52 251.96) rotate(-86.21)"/>
            <rect class="uuid-2f1c1be0-717a-4857-a711-53ccb7a0777e" x="173.92" y="88.38" width="8.5" height="48.18" transform="translate(-3.61 5.93) rotate(-1.89)"/>
            <rect class="uuid-2f1c1be0-717a-4857-a711-53ccb7a0777e" x="200.69" y="97.45" width="8.5" height="58.85" transform="translate(-15.25 28.81) rotate(-7.75)"/>
          </g>
        </g>
      </g>
      <g>
        <path class="uuid-b9d59a72-901a-42fb-9711-4997fe28c17c" d="M219.02,154.82c8.72-5.36,17.09.09,16.9,7.72-.18,7.63-6.18,21.38-18.72,14.87"/>
        <path class="uuid-189f2b24-5d09-44e5-aedb-7ffa60ae499c" d="M223.42,179.83c-2.06,0-4.24-.6-6.54-1.79-.35-.18-.48-.61-.3-.96.18-.35.6-.48.96-.3,3.9,2.02,7.39,2.15,10.37.39,4.59-2.71,7.19-9.57,7.32-14.65.08-3.32-1.57-6.28-4.41-7.91-3.32-1.91-7.48-1.61-11.42.81-.33.21-.77.1-.97-.23-.21-.33-.1-.77.23-.97,4.39-2.7,9.08-3.01,12.87-.83,3.3,1.9,5.21,5.33,5.12,9.18-.13,5.46-2.98,12.86-8.01,15.84-1.62.96-3.36,1.44-5.2,1.44Z"/>
      </g>
      <g>
        <path class="uuid-b9d59a72-901a-42fb-9711-4997fe28c17c" d="M225.2,157.45c4.54,1.82,4.73,10.36,0,12.72"/>
        <path class="uuid-189f2b24-5d09-44e5-aedb-7ffa60ae499c" d="M225.2,170.88c-.26,0-.51-.14-.63-.39-.17-.35-.03-.78.32-.95,1.99-.99,3.19-3.43,3.08-6.2-.08-1.98-.92-4.39-3.02-5.23-.36-.15-.54-.56-.4-.92.15-.36.56-.54.92-.4,2.29.91,3.79,3.4,3.92,6.48.14,3.33-1.38,6.29-3.86,7.53-.1.05-.21.08-.32.08Z"/>
      </g>
    </g>
  </g>
</svg>