<?xml version="1.0" encoding="UTF-8"?>
<svg id="uuid-e0dbd42b-5b05-407e-acee-93d4beaa6144" data-name="Capa 2" xmlns="http://www.w3.org/2000/svg" viewBox="0 0 851.72 979.23">
  <defs>
    <style>
      .uuid-235b92de-1eea-4dd0-9329-21974bcea836 {
        fill: #fff;
      }

      .uuid-78fe01c5-ffd2-4c13-96d9-a9333e4b6953 {
        fill: #2b1d3f;
      }

      .uuid-d6a76d39-b662-4b95-ae5d-0f0788869a94 {
        fill: #d5b8fe;
      }

      .uuid-f503720e-867f-4bbc-baa1-8d96eb8db394 {
        fill: #563a7f;
      }

      .uuid-7ce7b599-431d-4d88-9f19-e017036543fe {
        fill: #363100;
      }

      .uuid-0d6f9470-e03d-4a60-b315-ce8c95107658 {
        fill: #ac74fd;
      }

      .uuid-180cf5e0-3c25-4d22-a0d7-ef0af0149692 {
        fill: #e0ddbb;
      }

      .uuid-ec63850b-370c-4f58-9bfc-20864c0bd372 {
        fill: #8157be;
      }

      .uuid-c22b071d-c2c9-4d81-87c4-a01c41bc06b4 {
        fill: #ffc338;
      }
    </style>
  </defs>
  <g id="uuid-6dc99521-94d1-4a88-969c-8757a25e02a2" data-name="Capa 1">
    <ellipse class="uuid-d6a76d39-b662-4b95-ae5d-0f0788869a94" cx="453.92" cy="938.4" rx="297.39" ry="40.83"/>
    <g>
      <path class="uuid-ec63850b-370c-4f58-9bfc-20864c0bd372" d="M594.44,396.08c58.52-2.69,148.65,61.88,176.9,112.33,16.03,19.14,28.03,3.7,24.47-7.84-4.04-35.65-147.32-138.17-219.63-121.33-72.31,16.84,18.26,16.83,18.26,16.83Z"/>
      <path class="uuid-ec63850b-370c-4f58-9bfc-20864c0bd372" d="M851.58,605.42c-.74-9.11-.7-19.47-.96-27.87.41-6.45-2.09-10.95-5.85-16.12-4.81-6.39-.46-17.75-5.29-22.81-7.64-8.56-17.47-16.65-25.23-25.32-6.16-6.44-12.02-13.04-18-19.67-6.87-7.78-15.55-7.47-22.44.19-1.25,1.31-2.2,2.48-3.18,3.33-1.32,1.11-.86-1.31-2.27.49-5.48,7.83-7.29,18.14-8.49,26.77-1.4,6.61-6.12,14.27-6.65,20.68-.9,6.64,1.26,13,1.3,19.79.18,3.36-.43,6.75-.19,10.09.59,6.57,9.28,9.35,14.16,5.62,5.12-3.6,6.46-13.75,6.89-20.65.18-2.89.27-4.77,2.04-3.28,3.12,3.07,6.7,7.96,8.57,11.34,1.57,2.88,2.9,6.5,4.36,9.54,1.21,2.56,3.26,3.9,3.76,6.91.36,6.1.32,13.8-2.74,18.9-3.28,6.14-7.85,15.92-2.29,21.7,1.4,1.32,3.33,2.06,5.12,1.47,1.92-.59,3.49-2.47,4.73-4.15,2.13-2.91,4.48-6.69,6.04-9.31,4.49-6.57,3.73-14.79,4.5-22.4.4-3.4-.18-7.45.95-10.38,1.57-3.32,5.13-2.13,6.17,1.07,1.86,5.15,3.99,10.84,3.95,16.29.1,5.12-1.04,9.59-1.85,14.37-.62,5.2.43,11.34,3.22,14.87,1.93,2.65,6.38,4.42,9.02,2.34,2.03-1.62,1.87-6.08,2.57-9.37,1.1-5.14.68-9.31,5.69-4.52,3.18,2.79,9.01,1.98,11.35-1.32,1.62-2.46,1.12-5.56,1.05-8.38v-.21Z"/>
      <path class="uuid-ec63850b-370c-4f58-9bfc-20864c0bd372" d="M247.34,765.71c1.4,2.02,2.76,3.98,4.06,5.85,42.86,61.54,49.81,109.62,50.92,125.16.23,3.3-1.01,6.52-3.38,8.82l-43.28,42.23c-3.57,3.48-1.86,9.54,3.01,10.63l30.36,6.83c7.2,1.62,14.62-1.69,18.21-8.15l20.65-37.08c4.06-7.29,5.63-15.71,4.46-23.97l-4.37-30.91c-.83-5.9.69-11.88,4.29-16.63,15.28-20.19,61.44-72.39,128.88-70.22,63.61,2.05,93.6,45.45,104.28,66.03,3.14,6.06,4.8,12.76,4.8,19.59v36.73c0,5.73,3.49,10.88,8.81,13.01l55.09,22.04c6.17,2.47,13.21,1.19,18.12-3.29l10.38-9.48c5.67-5.18,3.76-14.53-3.48-17.07l-48.85-17.19c-4.74-1.67-8.08-5.95-8.55-10.96l-1.26-13.52c-1.92-20.67,6.17-40.95,21.68-54.75,10.25-9.12,22.45-21.81,34.19-38.49-134.35-25.02-273.22-23.7-409.03-5.21Z"/>
      <path class="uuid-0d6f9470-e03d-4a60-b315-ce8c95107658" d="M625.39,365.28c-8.55-40.84,0-337.25-160.09-336.99-172.91.28-226.01,145.96-240.8,326.23-.89,10.8-2.12,21.54-3.6,32.19-46.21,14.94-135.4,75.31-156.49,183.06-14.86,16.91,48.54,9.33,32.92,1.87-12.38-1.08,30.81-148.59,118.65-154.25-14.19,78.93-37.7,151.91-31.84,210.23,5.26,52.32,40.29,105.07,63.2,138.1,135.81-18.49,274.68-19.81,409.03,5.21,22.81-32.41,43.9-79.96,45.7-146,4.04-147.98-57.85-169.67-76.68-259.64Z"/>
      <g>
        <ellipse class="uuid-235b92de-1eea-4dd0-9329-21974bcea836" cx="494.79" cy="141.64" rx="69.62" ry="70.29"/>
        <path class="uuid-ec63850b-370c-4f58-9bfc-20864c0bd372" d="M494.79,213.32c-39.16,0-71.01-32.16-71.01-71.68s31.86-71.68,71.01-71.68,71.01,32.16,71.01,71.68-31.86,71.68-71.01,71.68ZM494.79,72.75c-37.62,0-68.22,30.9-68.22,68.89s30.61,68.89,68.22,68.89,68.22-30.9,68.22-68.89-30.6-68.89-68.22-68.89Z"/>
      </g>
      <ellipse cx="453.92" cy="143.29" rx="13.66" ry="13.89"/>
      <path class="uuid-78fe01c5-ffd2-4c13-96d9-a9333e4b6953" d="M534.4,67.78c-20.46-.8-88.32-4.33-110.58-16.63-3.13-1.73-7.07-.27-8.5,3-4.21,9.66-7.07,18.29-8.8,24.14-1.16,3.93,1.8,7.85,5.89,7.85h121.74c3.39,0,6.13-2.75,6.13-6.13v-6.1c0-3.3-2.6-6-5.9-6.13Z"/>
      <circle class="uuid-ec63850b-370c-4f58-9bfc-20864c0bd372" cx="385.47" cy="452.18" r="10.3"/>
      <circle class="uuid-ec63850b-370c-4f58-9bfc-20864c0bd372" cx="610.08" cy="444.82" r="6.22"/>
      <path class="uuid-180cf5e0-3c25-4d22-a0d7-ef0af0149692" d="M183.22,685.46c5.49,52.86,17.67,79.36,26.33,105.17,2.25,6.71,10.43,9.12,16.03,4.81,16.86-12.97,48.16,14.79,68.04,46.3,6.38,10.12,20.65,11.48,28.81,2.74,25.6-27.39,70.26-40.72,88.92-19.33,5.44,6.24,15,6.3,20.18-.16,26.63-33.17,58.49,7.25,74.13,42.68,3.74,8.48,15.59,8.95,20.12.85,25.55-45.71,66.91-63.49,86.85-55.39,7.12,2.9,15.3.02,18.92-6.77,14.92-27.93,38.05-45.35,50.47-39.13,5.37,2.69,11.8-.77,12.82-6.68,6.96-40.18,8.6-60.13,5.19-107.31-2.4-33.15-234.07-66.4-376-176.73-54.86-42.65-100.62-92.37-107.15-93.3-2.46-.35-3.58-1.62-12.99,7.84-15.25,15.32-32.6,179.54-20.66,294.39Z"/>
      <path class="uuid-7ce7b599-431d-4d88-9f19-e017036543fe" d="M168.44,605.56c-11.19,1.78-2.1,33.76,7.17,37.09,9.27,3.33,190.21-12.81,311.69-11.33,121.48,1.47,211.13,23.47,217.45,19.9,3.32-1.88,1.36-29.8,1.36-35.9s-135.81-26.05-218.81-27.29c-83-1.24-215.73,1.11-318.87,17.54Z"/>
      <path class="uuid-c22b071d-c2c9-4d81-87c4-a01c41bc06b4" d="M504.26,569.61c-21.7,0-39.29,18.46-39.29,41.23s17.59,41.23,39.29,41.23,39.29-18.46,39.29-41.23-17.59-41.23-39.29-41.23ZM509.68,632.29c-11.29,0-20.44-9.6-20.44-21.45s9.15-21.45,20.44-21.45,20.44,9.6,20.44,21.45-9.15,21.45-20.44,21.45Z"/>
      <g>
        <path class="uuid-0d6f9470-e03d-4a60-b315-ce8c95107658" d="M280.33,172.91c-8.07-17.49-55.16-18.83-52.47,14.13,2.69,32.96,36.32,38.34,48.43,29.6"/>
        <path class="uuid-ec63850b-370c-4f58-9bfc-20864c0bd372" d="M262.65,221.76c-5.16,0-10.66-1.14-15.63-3.43-6.99-3.22-18.95-11.55-20.55-31.17-1.1-13.47,5.77-23.16,18.83-26.59,14.66-3.85,31.62,1.65,36.29,11.77.32.7.02,1.53-.68,1.85-.7.32-1.53.02-1.85-.68-4.08-8.83-19.83-13.72-33.05-10.24-11.63,3.06-17.74,11.68-16.76,23.67,1.49,18.21,12.5,25.9,18.94,28.87,9.35,4.31,21.08,4.19,27.28-.29.62-.45,1.5-.31,1.95.31.45.62.31,1.5-.31,1.95-3.68,2.65-8.86,3.99-14.45,3.99Z"/>
      </g>
      <path class="uuid-ec63850b-370c-4f58-9bfc-20864c0bd372" d="M256.78,204.57c-.43,0-.86-.2-1.13-.58-7.09-9.84-4.99-18.27-.66-22.88,4.2-4.48,10.64-5.59,15.32-2.66.65.41.85,1.27.44,1.92-.41.65-1.27.85-1.92.44-3.55-2.23-8.51-1.3-11.8,2.21-3.56,3.8-5.2,10.87.89,19.34.45.62.31,1.5-.32,1.95-.25.18-.53.26-.81.26Z"/>
      <path class="uuid-ec63850b-370c-4f58-9bfc-20864c0bd372" d="M395.24,241.53c-.3-66.65,198-52.21,199.09,8.89,1.09,61.1-51.39,1.7-94.22,0-48.27-1.91-104.56,59.99-104.86-8.89Z"/>
      <path class="uuid-f503720e-867f-4bbc-baa1-8d96eb8db394" d="M554.88,240.19c-.32,0-.64-.05-.95-.15-39.49-12.63-100.82-10.85-119.54-.26-1.5.85-3.4.32-4.25-1.18-.85-1.5-.32-3.4,1.18-4.25,21.98-12.45,85.98-12.58,124.51-.26,1.64.52,2.55,2.28,2.02,3.92-.42,1.33-1.65,2.17-2.97,2.17Z"/>
      <path class="uuid-ec63850b-370c-4f58-9bfc-20864c0bd372" d="M389.57,487.57c-4.32,0-8.53-.61-12.55-1.85-15.47-4.79-26.4-18.51-29.99-37.63-.14-.76.36-1.49,1.11-1.63.76-.14,1.49.36,1.63,1.11,3.39,18.07,13.62,31,28.07,35.48,18,5.57,40.15-2.49,59.26-21.56.54-.54,1.43-.54,1.97,0,.54.54.54,1.43,0,1.97-15.65,15.63-33.39,24.11-49.5,24.11Z"/>
      <path class="uuid-ec63850b-370c-4f58-9bfc-20864c0bd372" d="M609.18,478.41c-14.86,0-31.19-7.78-45.61-22.12-.55-.54-.55-1.43,0-1.98.54-.55,1.43-.55,1.98,0,17.57,17.47,37.92,24.84,54.45,19.71,13.22-4.1,22.58-15.91,25.69-32.4.14-.76.87-1.26,1.63-1.11.76.14,1.26.87,1.11,1.63-3.3,17.54-13.36,30.13-27.6,34.55-3.73,1.16-7.63,1.72-11.64,1.72Z"/>
      <path class="uuid-ec63850b-370c-4f58-9bfc-20864c0bd372" d="M655.58,551.53c-13.56,0-28.63-3.94-42.14-11.43-.66-.37-.9-1.2-.53-1.86.37-.66,1.2-.9,1.86-.53,20,11.08,43.42,14.17,59.67,7.88,7.75-3,12.96-7.87,15.05-14.07.24-.71,1.01-1.1,1.73-.86.71.24,1.1,1.02.86,1.73-2.37,7-8.12,12.44-16.66,15.75-5.88,2.28-12.65,3.39-19.84,3.39Z"/>
      <path class="uuid-ec63850b-370c-4f58-9bfc-20864c0bd372" d="M285.94,244.8c-.3,0-.6-.1-.86-.3-.61-.47-.71-1.35-.24-1.96l13.06-16.68c.47-.61,1.35-.71,1.96-.24.61.47.71,1.35.24,1.96l-13.06,16.68c-.27.35-.68.53-1.1.53Z"/>
      <path class="uuid-ec63850b-370c-4f58-9bfc-20864c0bd372" d="M299,265.12c-.18,0-.37-.04-.55-.11-.71-.3-1.04-1.12-.74-1.83l13.76-32.29c.3-.71,1.12-1.04,1.83-.74.71.3,1.04,1.12.74,1.83l-13.76,32.29c-.23.53-.74.85-1.28.85Z"/>
      <path class="uuid-ec63850b-370c-4f58-9bfc-20864c0bd372" d="M318.14,290.68c-.13,0-.26-.02-.4-.06-.74-.22-1.16-.99-.94-1.73l10.76-36.32c.22-.74.99-1.16,1.73-.94.74.22,1.16.99.94,1.73l-10.76,36.32c-.18.61-.73,1-1.34,1Z"/>
      <path class="uuid-ec63850b-370c-4f58-9bfc-20864c0bd372" d="M345.72,298.75c-.11,0-.23-.01-.35-.04-.75-.19-1.2-.95-1-1.7l6.73-26.23c.19-.75.95-1.2,1.7-1,.75.19,1.2.95,1,1.7l-6.73,26.23c-.16.63-.73,1.05-1.35,1.05Z"/>
      <path class="uuid-ec63850b-370c-4f58-9bfc-20864c0bd372" d="M367.24,319.6c-.06,0-.13,0-.19-.01-.76-.11-1.29-.81-1.19-1.57l4.04-28.92c.11-.76.81-1.29,1.57-1.19.76.11,1.29.81,1.19,1.57l-4.04,28.92c-.1.7-.69,1.2-1.38,1.2Z"/>
      <path class="uuid-ec63850b-370c-4f58-9bfc-20864c0bd372" d="M406.93,322.29c-.75,0-1.37-.6-1.39-1.36l-.65-23.54c-.02-.77.59-1.41,1.35-1.43.77-.02,1.41.59,1.43,1.35l.65,23.54c.02.77-.59,1.41-1.35,1.43-.01,0-.03,0-.04,0Z"/>
      <path class="uuid-ec63850b-370c-4f58-9bfc-20864c0bd372" d="M442.73,322.29c-.7,0-1.31-.53-1.38-1.25l-2.47-23.54c-.08-.77.48-1.45,1.24-1.53.77-.08,1.45.48,1.53,1.24l2.47,23.54c.08.77-.48,1.45-1.24,1.53-.05,0-.1,0-.15,0Z"/>
      <path class="uuid-ec63850b-370c-4f58-9bfc-20864c0bd372" d="M483.61,329.69c-.56,0-1.1-.35-1.31-.91l-10.32-27.58c-.27-.72.1-1.52.82-1.79.72-.27,1.52.1,1.79.82l10.32,27.58c.27.72-.1,1.52-.82,1.79-.16.06-.33.09-.49.09Z"/>
      <path class="uuid-ec63850b-370c-4f58-9bfc-20864c0bd372" d="M517.24,324.98c-.57,0-1.11-.36-1.31-.93l-9.36-26.23c-.26-.73.12-1.52.84-1.78.73-.26,1.52.12,1.78.84l9.36,26.23c.26.73-.12,1.52-.84,1.78-.16.06-.31.08-.47.08Z"/>
      <path class="uuid-ec63850b-370c-4f58-9bfc-20864c0bd372" d="M554.91,315.56c-.51,0-1-.28-1.25-.77l-10.09-20.18c-.34-.69-.07-1.53.62-1.87.69-.34,1.53-.06,1.87.62l10.09,20.18c.34.69.07,1.53-.62,1.87-.2.1-.41.15-.62.15Z"/>
      <path class="uuid-ec63850b-370c-4f58-9bfc-20864c0bd372" d="M581.81,312.87c-.47,0-.92-.24-1.19-.66l-10.76-17.49c-.4-.66-.2-1.51.46-1.92.65-.4,1.51-.2,1.92.46l10.76,17.49c.4.66.2,1.51-.46,1.92-.23.14-.48.21-.73.21Z"/>
      <path class="uuid-ec63850b-370c-4f58-9bfc-20864c0bd372" d="M610.06,291.35c-.38,0-.76-.16-1.04-.47l-14.8-16.56c-.51-.57-.46-1.46.11-1.97.57-.51,1.46-.46,1.97.11l14.8,16.56c.51.57.46,1.46-.11,1.97-.27.24-.6.35-.93.35Z"/>
      <path class="uuid-ec63850b-370c-4f58-9bfc-20864c0bd372" d="M614.1,257.72c-.17,0-.35-.03-.52-.1l-8.3-3.36c-.71-.29-1.06-1.1-.77-1.82.29-.71,1.1-1.06,1.82-.77l8.3,3.36c.71.29,1.06,1.1.77,1.82-.22.54-.74.87-1.29.87Z"/>
      <path class="uuid-0d6f9470-e03d-4a60-b315-ce8c95107658" d="M385.47,42.47c-.77,0-1.39-.62-1.39-1.39v-22.87c0-.77.62-1.39,1.39-1.39s1.39.62,1.39,1.39v22.87c0,.77-.62,1.39-1.39,1.39Z"/>
      <path class="uuid-0d6f9470-e03d-4a60-b315-ce8c95107658" d="M400.03,37.91s-.04,0-.06,0c-.77-.03-1.37-.68-1.33-1.45l1.52-35.12c.03-.77.68-1.37,1.45-1.33.77.03,1.37.68,1.33,1.45l-1.52,35.12c-.03.75-.65,1.33-1.39,1.33Z"/>
      <path class="uuid-ec63850b-370c-4f58-9bfc-20864c0bd372" d="M626.54,557.38c-.11,0-.23-.01-.34-.04-.75-.19-1.2-.95-1.01-1.7l6.05-24.02c.19-.75.95-1.2,1.7-1.01.75.19,1.2.95,1.01,1.7l-6.05,24.02c-.16.63-.73,1.06-1.35,1.06Z"/>
      <path class="uuid-ec63850b-370c-4f58-9bfc-20864c0bd372" d="M647.05,560.07c-.7,0-1.3-.53-1.39-1.24l-2.01-17.61c-.09-.77.46-1.46,1.23-1.55.77-.08,1.46.46,1.55,1.23l2.01,17.61c.09.77-.46,1.46-1.23,1.55-.05,0-.11,0-.16,0Z"/>
      <path class="uuid-ec63850b-370c-4f58-9bfc-20864c0bd372" d="M670.26,557.38c-.59,0-1.14-.38-1.33-.97l-4.32-13.45c-.24-.73.17-1.52.9-1.76.74-.24,1.52.17,1.76.9l4.32,13.45c.24.73-.17,1.52-.9,1.76-.14.05-.29.07-.43.07Z"/>
      <path class="uuid-ec63850b-370c-4f58-9bfc-20864c0bd372" d="M686.41,553.68c-.54,0-1.05-.31-1.28-.84l-6.73-15.47c-.31-.71.02-1.53.72-1.84s1.53.02,1.84.72l6.73,15.47c.31.71-.02,1.53-.72,1.84-.18.08-.37.12-.56.12Z"/>
      <path class="uuid-7ce7b599-431d-4d88-9f19-e017036543fe" d="M73.99,523.32c13.38,1.14,27.47,7.03,35.04,11.94,2.31,1.5,3.5,4.24,3,6.95-2.01,11-5.6,20.83-9.18,22.53-3.14,1.48-23.94-7.56-35.55-9.69-3.87-.71-6.41-4.41-5.58-8.25,1.47-6.76,3.58-14,5.01-18.66.96-3.13,3.99-5.09,7.26-4.81Z"/>
      <path class="uuid-7ce7b599-431d-4d88-9f19-e017036543fe" d="M742.84,471.85c9.98-8.99,23.92-15.24,32.67-17.41,2.67-.66,5.49.35,7.12,2.56,6.65,8.99,11.37,18.33,10.16,22.11-1.07,3.31-21.89,12.3-31.37,19.32-3.16,2.34-7.6,1.66-9.83-1.57-3.93-5.69-7.77-12.18-10.19-16.42-1.63-2.84-.98-6.39,1.45-8.58Z"/>
      <path class="uuid-0d6f9470-e03d-4a60-b315-ce8c95107658" d="M141.02,627.05c.33-4.92-1.62-7.34-5.69-9.77-3.55-2.46-8.53-5.88-11.16-7.71-2.2-1.42-3.75-3.31-4.72-5.78-1.91-4.27-2.35-9.29-4.7-13.09-1.5-2.53-3.64-4.88-5.72-7.03-2.12-2.18-4.36-4.26-6.5-6.42-3.38-3.36-6.45-7.45-10.57-9.62-10.87-5.99-24.34-1.44-33.14,6.3-8.73,6.93-24.96,15.27-29.98,25.83-4.05,6.8-9.41,12.62-14.27,19.09-3.09,3.73-6.71,6.97-8.75,11.41-.81,1.7-1.29,3.46-1.56,5.25-.77,5.14-1.99,12.46-3.49,21.65-1.06,5.03-2.17,13.33,5.11,13.37,10.52.12,10.28-11.46,11.49-19.82.07-.46.46-2.57.77-1.71.62,2.75-.02,6.53.6,9.4.48,2.94,2.44,5.81,4.09,8.57,1.92,3.26,4.27,7.06,6.12,10.04,2.17,3.83,3.64,5.73,8.33,5.62,3.33.13,7.08,1.22,10.25-.3,3.51-1.76,5.97-5.54,5.44-9.38-.47-4.2-3.18-7.92-3.73-12.06-.32-2.35-.29-4.74-.59-7.1-.28-2.83-1.07-6.08-.5-9.17.58-3.48,3.23-8.41,4.12-11.42-.07,1.18-.98,4.54-.95,6.71-.06,2.23.82,3.8,1.1,6.01.96,6.12,2.5,15.59,3.97,20.89,1.69,4.71,9.38,4.17,13,1.88,4.31-2.78,3.83-8.52,3.13-12.96-.35-3.28-1-7.2-1.09-10.74.1-3.89.76-9.05,1.98-12.5,1.13-1.75,3.32-.15,5.02.4,5.06,2.04,11.23.36,15.45-2.68,6.06-5.1,8.5-8.71,16.46-3.55,3.32,2.18,8.14,4.02,5.58,8.57-1.7,3.98-2.64,9.85-2.09,15.01.36,4.07,1.3,7.69,4.69,9.27,3.38,1.39,9.04,2.45,10.97-1.47.56-1.16.89-2.69,1.21-4.01,1.9-9.35,8.88-17.36,10.3-26.81v-.18ZM106.71,618.24c-.16.1-.35.21-.55.33.15-.16.3-.3.44-.44l.11.11ZM30.86,633.52c-.04.05-.08.09-.11.11l-.44-.33.55.22ZM53.88,637.92c-.04-.18-.11-.59-.15-.79-.03-.22-.13-.5,0-.34l.58.74c.17.12-.28.33-.38.43l-.05-.05ZM126.53,657.99v-1c0,.34.05.67.11,1h-.11Z"/>
    </g>
  </g>
</svg>