<?xml version="1.0" encoding="UTF-8"?>
<svg id="uuid-a7378a9c-2c9d-47e5-8192-b476451181c4" data-name="Capa 2" xmlns="http://www.w3.org/2000/svg" viewBox="0 0 847.98 873.83">
  <defs>
    <style>
      .uuid-b546c089-a56c-4c54-9f3e-a958668d0bf5 {
        fill: #80621c;
      }

      .uuid-0a724a30-01aa-42ec-8d6d-e15c99330b1b {
        fill: #585858;
      }

      .uuid-118d934a-3fb2-4efa-a0ca-3a95aa0b92eb {
        fill: #6cf3af;
      }

      .uuid-ae65fe7d-6132-4f01-b013-27f5d7fb0bc9 {
        fill: #ddfced;
      }

      .uuid-c4e91524-7c02-42fa-92b0-07db64ec7a7a {
        fill: #b0b0b0;
      }

      .uuid-8b922ada-bde0-4533-896f-5171d760b7b0 {
        fill: #b4f9d6;
      }

      .uuid-3bf2c131-b44c-4a53-977e-5b1efc70c8b4 {
        fill: #367a58;
      }

      .uuid-3142cdce-038b-4827-bcfd-0014cec7823a {
        fill: #eaebea;
      }

      .uuid-9db522a9-a084-4d6e-af7f-e9bebe86b883 {
        fill: #1b3d2c;
      }

      .uuid-04b85a6e-8f1c-4939-891c-dbd0cca1ed1f {
        fill: #51b683;
      }

      .uuid-67fec28b-8833-40e5-937d-22f824693a50 {
        fill: #ffc338;
      }
    </style>
  </defs>
  <g id="uuid-116fa2d3-b72b-4be6-b7bd-dc0e5a8e30a8" data-name="Capa 1">
    <g>
      <ellipse class="uuid-8b922ada-bde0-4533-896f-5171d760b7b0" cx="453.67" cy="833" rx="297.39" ry="40.83"/>
      <path class="uuid-0a724a30-01aa-42ec-8d6d-e15c99330b1b" d="M261.88,807.72c70,6.11,214.33-76.89,361.34-25.89,58.56,20.32-95.23-55-95.23-55l-173-31.63-93.11,112.52Z"/>
      <ellipse class="uuid-b546c089-a56c-4c54-9f3e-a958668d0bf5" cx="720.62" cy="319" rx="32.13" ry="23.24" transform="translate(306.18 989.3) rotate(-82.15)"/>
      <ellipse class="uuid-b546c089-a56c-4c54-9f3e-a958668d0bf5" cx="144.98" cy="376.04" rx="18.72" ry="32.67" transform="translate(-194.11 158.22) rotate(-36.2)"/>
      <path class="uuid-118d934a-3fb2-4efa-a0ca-3a95aa0b92eb" d="M256.99,318.83c-.24.8-.46,1.64-.69,2.51.73-1.12.99-1.98.69-2.51Z"/>
      <path class="uuid-04b85a6e-8f1c-4939-891c-dbd0cca1ed1f" d="M285.63,798.84c1.09,5.06-1.97,10.09-6.97,11.45l-82.34,22.57c-2.77.76-3.97,4.01-2.37,6.39,3.81,5.66,9.92,14.02,11.92,14.25,10.52,1.21,58.59-11.19,100.56-27.68,6.7-2.63,10.54-9.73,8.98-16.76-7.87-35.6-12.23-108.6-18.43-150.23-7-47,61-72,97-85s82,0,99,17,88,216.89,88,216.89l76,31.11s46.33-22,39.33-26-82.27-8.76-93.27-24.76c-6.93-10.08-51.57-144.43-88.67-251.25-86.47,9.35-172.07,27.44-255.81,51.14,6.68,81.78,16.59,162.16,27.06,210.88Z"/>
      <path class="uuid-118d934a-3fb2-4efa-a0ca-3a95aa0b92eb" d="M549.99,304.83c51,13,209.22,41.09,209.22,41.09,0,0,.89-24.6.89-34.6-21-3-261.11-64.16-261.11-64.16l-52,2.67s-158-6-175,0-190.62,158.05-190.62,158.05c0,0-10.16,24.29,12.3,26.05,19.75-9.4,151.17-94.93,162.63-112.58.22-.87.45-1.72.69-2.51.3.54.04,1.39-.69,2.51-9.99,39.07-6.91,154.16,2.27,266.62,83.74-23.7,169.34-41.79,255.81-51.14-21.8-62.77-40.99-116.04-48.39-128.99,17-49,21-113,21-113,0,0,12-3,63,10Z"/>
      <path class="uuid-04b85a6e-8f1c-4939-891c-dbd0cca1ed1f" d="M452.44,364.6c-8.86,0-25.54-1.95-54.19-11.47-.46-.15-.72-.66-.56-1.12.15-.46.65-.72,1.12-.56,46.73,15.52,61.41,10.6,61.55,10.55.46-.17.97.07,1.13.53.17.46-.06.96-.52,1.13-.24.09-2.68.94-8.53.94Z"/>
      <g>
        <path class="uuid-04b85a6e-8f1c-4939-891c-dbd0cca1ed1f" d="M420.79,436.21c-.22,0-.43,0-.65-.02-4.75-.26-10.47-3.49-10.98-11.76-.03-.49.34-.91.83-.94.48-.03.91.34.94.83.44,7.11,5.28,9.88,9.3,10.1,4.55.25,9.68-2.56,10.67-8.41.08-.48.54-.81,1.02-.72.48.08.81.54.72,1.02-1.13,6.59-6.71,9.9-11.87,9.9Z"/>
        <path class="uuid-04b85a6e-8f1c-4939-891c-dbd0cca1ed1f" d="M442.52,438.15c-.22,0-.43,0-.65-.02-4.75-.26-10.47-3.49-10.98-11.76-.03-.49.34-.91.83-.94.46-.03.91.34.94.83.43,7.11,5.28,9.88,9.3,10.1,4.54.23,9.68-2.56,10.67-8.41.08-.48.54-.81,1.02-.72.48.08.81.54.72,1.02-1.13,6.59-6.71,9.9-11.87,9.9Z"/>
        <path class="uuid-04b85a6e-8f1c-4939-891c-dbd0cca1ed1f" d="M464.26,439.41c-.22,0-.43,0-.64-.02-4.75-.26-10.47-3.49-10.98-11.76-.03-.49.34-.91.83-.94.45-.02.91.34.94.83.44,7.11,5.28,9.88,9.3,10.1,4.53.24,9.68-2.56,10.67-8.41.08-.48.54-.81,1.02-.72.48.08.81.54.72,1.02-1.13,6.59-6.71,9.9-11.87,9.9Z"/>
        <path class="uuid-04b85a6e-8f1c-4939-891c-dbd0cca1ed1f" d="M451.77,449.1c-.22,0-.43,0-.65-.02-4.75-.26-10.47-3.49-10.98-11.76-.03-.49.34-.91.83-.94.46-.02.91.34.94.83.43,7.11,5.28,9.88,9.3,10.1,4.53.23,9.68-2.56,10.67-8.41.08-.48.54-.8,1.02-.72.48.08.81.54.72,1.02-1.13,6.59-6.71,9.9-11.87,9.9Z"/>
        <path class="uuid-04b85a6e-8f1c-4939-891c-dbd0cca1ed1f" d="M439.89,459.32c-.22,0-.43,0-.64-.02-4.75-.26-10.47-3.49-10.98-11.76-.03-.49.34-.91.83-.94.45-.03.91.34.94.83.44,7.11,5.28,9.88,9.3,10.1,4.56.24,9.68-2.56,10.67-8.41.08-.48.54-.8,1.02-.72.48.08.81.54.72,1.02-1.13,6.59-6.71,9.9-11.87,9.9Z"/>
        <path class="uuid-04b85a6e-8f1c-4939-891c-dbd0cca1ed1f" d="M451.77,471.45c-.22,0-.43,0-.65-.02-4.75-.26-10.47-3.49-10.98-11.76-.03-.49.34-.91.83-.94.46-.03.91.34.94.83.43,7.11,5.28,9.88,9.3,10.1,4.53.24,9.68-2.56,10.67-8.41.08-.48.54-.8,1.02-.72.48.08.81.54.72,1.02-1.13,6.59-6.71,9.9-11.87,9.9Z"/>
        <path class="uuid-04b85a6e-8f1c-4939-891c-dbd0cca1ed1f" d="M462.64,460.05c-.22,0-.43,0-.65-.02-4.75-.26-10.47-3.49-10.98-11.76-.03-.49.34-.91.83-.94.46-.03.91.34.94.83.43,7.11,5.28,9.88,9.3,10.1,4.56.24,9.68-2.56,10.67-8.41.08-.48.54-.8,1.02-.72.48.08.81.54.72,1.02-1.13,6.59-6.71,9.9-11.87,9.9Z"/>
        <path class="uuid-04b85a6e-8f1c-4939-891c-dbd0cca1ed1f" d="M475.16,451.44c-1.41,0-2.81-.24-4.16-.74-4.43-1.64-7.16-5.67-7.49-11.05-.03-.49.34-.91.83-.94.46-.03.91.34.94.83.28,4.65,2.59,8.11,6.34,9.49,3.79,1.4,8.21.41,11-2.46.34-.35.9-.36,1.25-.02s.36.9.02,1.25c-2.28,2.35-5.49,3.63-8.72,3.63Z"/>
        <path class="uuid-04b85a6e-8f1c-4939-891c-dbd0cca1ed1f" d="M484.4,462.38c-2.31,0-4.56-.65-6.46-1.91-3.08-2.05-4.92-5.56-5.19-9.88-.03-.49.34-.91.83-.94.46-.02.91.34.94.83.29,4.81,2.55,7.28,4.4,8.51,2.57,1.71,5.93,2.08,9.01,1.01.46-.16.97.08,1.13.54.16.46-.08.97-.54,1.13-1.35.47-2.74.7-4.12.7Z"/>
        <path class="uuid-04b85a6e-8f1c-4939-891c-dbd0cca1ed1f" d="M475.13,471.45c-.22,0-.43,0-.64-.02-4.75-.26-10.47-3.49-10.98-11.76-.03-.49.34-.91.83-.94.46-.03.91.34.94.83.43,7.11,5.28,9.88,9.3,10.1,4.54.24,9.67-2.56,10.67-8.41.08-.48.54-.8,1.02-.72.48.08.81.54.72,1.02-1.13,6.59-6.71,9.9-11.87,9.9Z"/>
        <path class="uuid-04b85a6e-8f1c-4939-891c-dbd0cca1ed1f" d="M462.64,482.4c-.22,0-.43,0-.64-.02-4.75-.26-10.47-3.49-10.98-11.76-.03-.49.34-.91.83-.94.46-.02.91.34.94.83.43,7.11,5.28,9.88,9.3,10.1,4.54.24,9.68-2.56,10.67-8.41.08-.48.54-.8,1.02-.72.48.08.81.54.72,1.02-1.13,6.59-6.71,9.9-11.87,9.9Z"/>
        <path class="uuid-04b85a6e-8f1c-4939-891c-dbd0cca1ed1f" d="M486.03,482.41c-1.36,0-2.73-.22-4.04-.69-4.51-1.61-7.29-5.65-7.63-11.1-.03-.49.34-.91.83-.94.46-.02.91.34.94.83.29,4.7,2.64,8.18,6.45,9.53,3.86,1.38,8.3.3,11.04-2.67.33-.36.89-.38,1.25-.05.36.33.38.89.05,1.25-2.29,2.48-5.57,3.83-8.91,3.83Z"/>
        <path class="uuid-04b85a6e-8f1c-4939-891c-dbd0cca1ed1f" d="M475.13,493.35c-.22,0-.43,0-.64-.02-4.75-.26-10.47-3.49-10.98-11.76-.03-.49.34-.91.83-.94.46-.03.91.34.94.83.43,7.11,5.28,9.88,9.3,10.1,4.54.24,9.67-2.56,10.67-8.41.08-.48.54-.8,1.02-.72.48.08.81.54.72,1.02-1.13,6.59-6.71,9.9-11.87,9.9Z"/>
        <path class="uuid-04b85a6e-8f1c-4939-891c-dbd0cca1ed1f" d="M498.43,493.35c-2.71,0-5.32-.89-7.34-2.55-2.58-2.12-4.07-5.31-4.31-9.23-.03-.49.34-.91.83-.94.48-.03.91.34.94.83.21,3.42,1.48,6.17,3.66,7.97,2.05,1.68,4.84,2.43,7.65,2.05.5-.07.93.27,1,.76.07.49-.27.93-.76,1-.56.08-1.12.11-1.67.11Z"/>
        <path class="uuid-04b85a6e-8f1c-4939-891c-dbd0cca1ed1f" d="M484.38,504.3c-.22,0-.43,0-.65-.02-4.75-.26-10.47-3.49-10.98-11.76-.03-.49.34-.91.83-.94.46-.02.91.34.94.83.43,7.11,5.28,9.88,9.3,10.1,4.54.24,9.68-2.56,10.67-8.41.08-.48.54-.8,1.02-.72.48.08.81.54.72,1.02-1.13,6.59-6.71,9.9-11.87,9.9Z"/>
        <path class="uuid-04b85a6e-8f1c-4939-891c-dbd0cca1ed1f" d="M492,472.2c-.13,0-.27-.03-.4-.09-3.8-1.9-6.06-5.65-6.36-10.56-.03-.49.34-.91.83-.94.45-.03.91.34.94.83.26,4.25,2.17,7.47,5.39,9.08.44.22.62.75.4,1.19-.16.31-.47.49-.79.49Z"/>
        <path class="uuid-04b85a6e-8f1c-4939-891c-dbd0cca1ed1f" d="M429.02,470.27c-.22,0-.43,0-.64-.02-4.75-.26-10.47-3.49-10.98-11.76-.03-.49.34-.91.83-.94.49-.02.91.34.94.83.44,7.11,5.28,9.88,9.3,10.1,4.56.24,9.68-2.56,10.67-8.41.08-.48.54-.8,1.02-.72.48.08.81.54.72,1.02-1.13,6.59-6.71,9.9-11.87,9.9Z"/>
        <path class="uuid-04b85a6e-8f1c-4939-891c-dbd0cca1ed1f" d="M417.45,459.32c-.22,0-.43,0-.65-.02-4.75-.26-10.47-3.49-10.98-11.76-.03-.49.34-.91.83-.94.48-.03.91.34.94.83.44,7.11,5.28,9.88,9.3,10.1,4.57.25,9.68-2.56,10.67-8.41.08-.48.54-.8,1.02-.72.48.08.81.54.72,1.02-1.13,6.59-6.71,9.9-11.87,9.9Z"/>
        <path class="uuid-04b85a6e-8f1c-4939-891c-dbd0cca1ed1f" d="M406.58,447.15c-.22,0-.43,0-.65-.02-4.75-.26-10.47-3.49-10.98-11.76-.03-.49.34-.91.83-.94.48-.02.91.34.94.83.44,7.11,5.28,9.88,9.3,10.1,4.53.24,9.68-2.56,10.67-8.41.08-.48.54-.81,1.02-.72.48.08.81.54.72,1.02-1.12,6.59-6.71,9.9-11.87,9.9Z"/>
        <path class="uuid-04b85a6e-8f1c-4939-891c-dbd0cca1ed1f" d="M398.39,435.11c-.22,0-.43,0-.65-.02-4.75-.26-10.47-3.49-10.98-11.76-.03-.49.34-.91.83-.94.48-.02.91.34.94.83.44,7.11,5.28,9.88,9.3,10.1,4.55.24,9.68-2.56,10.67-8.41.08-.48.54-.81,1.02-.72.48.08.81.54.72,1.02-1.13,6.59-6.71,9.9-11.87,9.9Z"/>
        <path class="uuid-04b85a6e-8f1c-4939-891c-dbd0cca1ed1f" d="M429.02,448.38c-.22,0-.43,0-.64-.02-4.75-.26-10.47-3.49-10.98-11.76-.03-.49.34-.91.83-.94.49-.02.91.34.94.83.44,7.11,5.28,9.88,9.3,10.1,4.54.24,9.68-2.56,10.67-8.41.08-.48.54-.8,1.02-.72.48.08.81.54.72,1.02-1.13,6.59-6.71,9.9-11.87,9.9Z"/>
      </g>
      <path class="uuid-3142cdce-038b-4827-bcfd-0014cec7823a" d="M261.88,807.72c33.11-12.89,166.44-99.56,206.11-56.89,61.53,66.19,104.33,46,256,54-132-90-186-222.22-216.5-297-37.5-27-189.5-86-197.5-218-3-28,0-49,0-49h-38c-29,134-76.11,369.89-10.11,566.89Z"/>
      <path class="uuid-9db522a9-a084-4d6e-af7f-e9bebe86b883" d="M525.99,68.5c-6.13-26.65-18.58-65.67-73.79-68.33-55.21-2.67-93.88,27.33-107.88,64-14,36.67-69.17,26.33-68.5-3,.67-29.33,37.83-30.33,33.83-10.7,14.33-5.47,15.5-36.97-8.67-38.68-28.6-2.03-51.65,16.05-58.67,49.71-5.83,28,17.33,74.67,69.33,67.33-14,30.67-29.88,39.33-58.27,36-28.39-3.33-60.39-45.37-44.39-75.68-50-4.32-74.67,118.35,39.33,155.02,56,10,52,2.98,70.66,3.01,18.66.04,15.61,112.57-45.33,86.32,18.31,37.58,90,22,88.67-39.33,6.67,97.33,69.33,139.33,108.17,123.05-30.17,15.62-109.4-108.15,20.49-103.72,44.67,56.67,80.67,28,88,15.33-76-44.67,18.67-120-45.33-167.33,68.67,11.33,104-41.85,84-87.33-20.67,48-78.33,52.33-91.67-5.67Z"/>
      <path class="uuid-118d934a-3fb2-4efa-a0ca-3a95aa0b92eb" d="M518.78,78.17c-.76-13.08-27.12-28.67-45.12-15.33-19.33-16.33-81.33-18-92.33,20.33s4,75,25.33,74.67c21.33-.33,50.33-8.33,58.33-17.67,13.67,15.33,28.33,15.33,33,16,7.33-6,23.33-34.33,20.79-78Z"/>
      <g>
        <path class="uuid-118d934a-3fb2-4efa-a0ca-3a95aa0b92eb" d="M387.66,97.5c-3-10.67-33-21.67-32.67,4.67.33,26.33,21,31.33,30.33,30"/>
        <path class="uuid-3bf2c131-b44c-4a53-977e-5b1efc70c8b4" d="M382.41,133.07c-5.61,0-12.73-1.93-18.23-6.64-6.43-5.51-9.76-13.67-9.9-24.26-.17-13.2,7.1-16.23,11.45-16.86,8.82-1.27,20.65,5,22.61,11.99.11.38-.11.77-.49.87-.38.11-.77-.11-.87-.49-1.62-5.75-12.32-12.23-21.04-10.97-4.75.69-10.38,3.92-10.23,15.44.13,10.16,3.29,17.97,9.4,23.2,6.21,5.32,14.58,6.9,20.12,6.11.38-.05.75.21.8.6.06.39-.21.75-.6.8-.94.13-1.95.2-3.02.2Z"/>
      </g>
      <path class="uuid-3bf2c131-b44c-4a53-977e-5b1efc70c8b4" d="M364.66,105.57c-.28,0-.54-.16-.65-.44-1.37-3.27-.54-6.41,2.22-8.39,3.17-2.27,8.87-2.7,12.57.56.29.26.32.71.06,1-.26.29-.71.32-1,.06-3.17-2.8-8.08-2.42-10.8-.47-1.3.94-3.26,3.05-1.74,6.69.15.36-.02.78-.38.93-.09.04-.18.06-.27.06Z"/>
      <g>
        <path class="uuid-118d934a-3fb2-4efa-a0ca-3a95aa0b92eb" d="M474.32,74.5c6,20,11.67,69.34,9,83.34-12.33,1.66-46,2.33-42.67-11.67"/>
        <path class="uuid-3bf2c131-b44c-4a53-977e-5b1efc70c8b4" d="M469.14,159.4c-10.8,0-22.95-1.46-27.49-6.48-1.75-1.93-2.32-4.26-1.68-6.93.09-.38.48-.62.85-.53.38.09.62.47.53.85-.53,2.21-.08,4.06,1.36,5.65,6.31,6.97,29.72,6.52,40.01,5.22,2.5-14.94-3.38-63.51-9.07-82.5-.11-.38.1-.77.47-.88.38-.11.77.1.88.48,5.8,19.33,11.77,69.2,9.02,83.67-.06.3-.3.53-.6.57-3.61.49-8.76.87-14.27.87ZM483.32,157.83h0,0Z"/>
      </g>
      <ellipse class="uuid-9db522a9-a084-4d6e-af7f-e9bebe86b883" cx="432.71" cy="104.88" rx="7.72" ry="11.72"/>
      <ellipse class="uuid-9db522a9-a084-4d6e-af7f-e9bebe86b883" cx="498.69" cy="107.96" rx="11.17" ry="7.32" transform="translate(309.44 581.8) rotate(-80.44)"/>
      <path class="uuid-3bf2c131-b44c-4a53-977e-5b1efc70c8b4" d="M468.32,83.17l-10,17.08s-49.67-25.42-48.67-27.08,6.67-3,6.67-3l36.67,15.69,15.33-2.69Z"/>
      <polygon class="uuid-3bf2c131-b44c-4a53-977e-5b1efc70c8b4" points="484 85.21 491.23 95.64 525.32 82.83 527.99 75.76 498.69 83.83 484 85.21"/>
      <path class="uuid-67fec28b-8833-40e5-937d-22f824693a50" d="M286.62,234.61c-19.7-.7-36.26,15.4-36.99,35.95-.73,20.56,14.65,37.79,34.35,38.49,19.7.7,36.26-15.4,36.99-35.95.73-20.56-14.65-37.79-34.35-38.49ZM308.43,272.65c-.47,13.33-11.22,23.77-23.99,23.32-12.78-.45-22.75-11.63-22.28-24.96.47-13.33,11.22-23.77,23.99-23.32,12.78.45,22.75,11.63,22.28,24.96Z"/>
      <path class="uuid-67fec28b-8833-40e5-937d-22f824693a50" d="M697.6,315.83c2.42-17.58,14.69-30.41,27.41-28.65l-40.94-9.44c-.96-.31-1.94-.54-2.96-.68-13.13-1.81-25.8,11.44-28.3,29.59-2.5,18.15,6.11,34.33,19.24,36.14l42.85,7.81c-11.95-2.63-19.63-17.8-17.29-34.76Z"/>
      <g>
        <path class="uuid-118d934a-3fb2-4efa-a0ca-3a95aa0b92eb" d="M846.82,371.04c-.83-5.86-2.01-11.8-2.13-16.79.04-3.11-3.07-5.27-4.8-7.67-.51-.6-.91-.97-1.23-1.31-1.12-1.3-1.29-3.05-2.1-4.63-1.16-3.11-2.89-7.49-4.39-11.49-.74-2.81-1.06-4.93-2.2-7.59-2.37-6.59-5.77-14.81-8.41-17.74-.82-.91-1.98-1.28-3.25-1.34-6.85-.36-15.72,1.11-22.35,2.61-2.44.69-4.56,1.19-5.68-1.24-.39-.98.03-2.1.53-3,1.1-1.93,2.05-3.73,3-5.31.9-1.42,2.52-2.11,4.12-2.58,4.3-1.22,7.74-2.31,10.28-3.27,1.48-.7,2.66.51,3.46,1.7,2.53,3.45,5.86,6.03,9.82,6.99,1.45.3,2.97.05,4.31-.34,14.12-3.76,3.24-18.06-3.99-27.29-5.3-7.88-21.83-.62-30.33,1.68-1.63.64-1.82-.09-3.69.7-2.03.64-3.99,1.52-5.33,3.26-8.03,9.26-16.01,17.84-25.94,25.72-1.84,1.77-2.38,3.84-3.02,6.28-1.13,3.06-2.47,6.28-4.06,8.88-.84,1.32-2.14,2.23-3.56,2.88-6.78,3.15-14.02,4.94-20.72,5.96-1.52.24-2.71.36-4.09,1.18-5.14,3.56-9.1,9.13-13.87,11.8-2.32,1.67-6.23,2.86-7.98,5.23-1.14,1.79-1.04,3.65-.95,6.02.18,2.01,1.48,3.49,3.36,4.44,4.16,2.12,11.16,1.9,15.15,1.06,5.5-1.35,10.46-5.52,14.14-9.88,1.03-1.45,2.63-1.23,4.18-.98,2.14.22,4.08-1.03,6.1-.7,13.59,3.15,21.4,25.41,37.66,16.96,1.13-.37,2.1-.4,3-.15,4.61,1.54,11.99,3.44,17.44,5.66,1.72.72,2.79,1.46,4.45,1.9,1.76.43,2.74.27,4.3.36,2.22.11,4.4-.77,6.8-2.45,1.57-1.15,2.62-1.04,3.33.84,1.99,4.72,7.88,6.76,12.63,5,1.22-.39,1.9.49,2.45,1.47,2.85,4.95,9.86,11.01,14.27,5.95.93-1.32.17-3.25-.15-5.38-.19-1.06-.37-2.11-.53-3.19l-.03-.22ZM790.57,295.17l-.07-.23c.09.04.16.05.21.04-.05.06-.09.12-.14.19ZM831.37,371.07c.08-.26.16-.53.25-.82.08.4.19.78.35,1.14l-.59-.32Z"/>
        <path class="uuid-ae65fe7d-6132-4f01-b013-27f5d7fb0bc9" d="M816.57,366.15c-.28,0-.55-.17-.66-.45-.03-.07-2.44-6.3,1.66-11.18-10.5-3.59-8.07-18.8-6.74-27.11.32-1.98.67-4.19.58-4.96-3.03.18-13.92,2.6-14.04,2.62-.38.08-.76-.16-.84-.54-.08-.38.16-.76.54-.85.49-.11,11.96-2.65,14.63-2.67h0c.3,0,.57.12.77.35.61.72.38,2.34-.24,6.26-1.39,8.71-3.72,23.29,6.82,25.84.25.06.45.25.52.51.07.25,0,.52-.2.7-4.52,4.3-2.24,10.24-2.14,10.5.14.36-.03.78-.4.92-.09.03-.17.05-.26.05Z"/>
        <path class="uuid-ae65fe7d-6132-4f01-b013-27f5d7fb0bc9" d="M732.06,345.27c-.16,0-.32-.05-.45-.16-.3-.25-.34-.7-.1-1,3.02-3.66,2.45-8.48,2.44-8.52-.05-.39.23-.74.61-.79.38-.05.74.22.79.61.03.22.65,5.48-2.75,9.61-.14.17-.34.26-.55.26Z"/>
        <path class="uuid-ae65fe7d-6132-4f01-b013-27f5d7fb0bc9" d="M780.8,361.06c-.22,0-.43-.1-.57-.29-.23-.32-.16-.76.15-.99,2.69-1.98,5.25-4.27,5.69-7.58.05-.39.4-.65.8-.61.39.05.66.41.61.8-.51,3.84-3.31,6.37-6.25,8.53-.13.09-.27.14-.42.14Z"/>
        <path class="uuid-ae65fe7d-6132-4f01-b013-27f5d7fb0bc9" d="M710.17,337.74c-.21,0-.41-.09-.55-.26-.25-.3-.2-.75.1-1,1.43-1.17,2.81-2.52,4.27-3.95,2.08-2.04,4.24-4.14,6.66-5.82.32-.22.76-.14.99.18.22.32.14.76-.18.99-2.33,1.61-4.44,3.67-6.48,5.67-1.48,1.45-2.88,2.82-4.36,4.03-.13.11-.29.16-.45.16Z"/>
        <path class="uuid-ae65fe7d-6132-4f01-b013-27f5d7fb0bc9" d="M725.15,326.83c-.34,0-.65-.25-.7-.6-.06-.39.21-.75.59-.81,7.73-1.17,14.63-3.16,20.53-5.9.35-.16.78-.01.94.34.17.35.01.78-.34.94-6.02,2.8-13.06,4.82-20.92,6.02-.04,0-.07,0-.11,0Z"/>
        <path class="uuid-ae65fe7d-6132-4f01-b013-27f5d7fb0bc9" d="M745.88,320.87c-.27,0-.53-.15-.64-.41-.16-.36,0-.78.35-.94,1.51-.69,2.58-1.55,3.26-2.61.21-.33.65-.43.98-.22.33.21.43.65.22.98-.83,1.31-2.09,2.33-3.87,3.14-.09.04-.2.06-.29.06Z"/>
        <path class="uuid-ae65fe7d-6132-4f01-b013-27f5d7fb0bc9" d="M749.44,317.99c-.12,0-.25-.03-.37-.1-.33-.2-.44-.64-.24-.97,1.52-2.5,2.15-4.04,3.32-7.22.14-.37.55-.56.91-.42.37.14.56.54.42.91-1.18,3.2-1.86,4.87-3.44,7.46-.13.22-.37.34-.61.34Z"/>
        <path class="uuid-ae65fe7d-6132-4f01-b013-27f5d7fb0bc9" d="M721.06,328.01c-.24,0-.48-.12-.61-.35-.2-.34-.09-.77.25-.97,1.36-.81,2.53-.99,3.88-1.2l.46-.07c.39-.06.75.2.81.59.06.39-.2.75-.59.81l-.47.07c-1.26.2-2.25.35-3.37,1.02-.11.07-.24.1-.36.1Z"/>
        <path class="uuid-ae65fe7d-6132-4f01-b013-27f5d7fb0bc9" d="M810.29,289.6c-.23,0-.45-.11-.59-.31-2.64-3.89-1.14-7.81.67-11.13.19-.34.62-.47.96-.28.34.19.47.62.28.96-2.31,4.23-2.52,7.02-.74,9.66.22.32.13.76-.19.98-.12.08-.26.12-.4.12Z"/>
        <path class="uuid-ae65fe7d-6132-4f01-b013-27f5d7fb0bc9" d="M820.15,354.99c-.45,0-.92-.04-1.4-.13-.38-.07-.64-.44-.57-.82.07-.38.43-.64.82-.57,2.47.44,4.27-.67,4.56-1.03.52-.64.62-2.21.74-4.19.28-4.52.74-12.09,6.82-21.34.21-.33.65-.42.98-.2.33.22.42.65.2.98-5.88,8.94-6.31,15.98-6.59,20.64-.14,2.33-.24,4.01-1.05,5-.49.6-2.18,1.66-4.51,1.66Z"/>
        <path class="uuid-ae65fe7d-6132-4f01-b013-27f5d7fb0bc9" d="M831.96,373.16c-.37,0-.68-.29-.71-.67-.2-3.2,1.07-7.15,2.68-12.14,1.43-4.44,3.05-9.46,4.02-15.2.07-.39.43-.65.82-.58.39.06.65.43.58.82-.98,5.83-2.62,10.92-4.07,15.4-1.5,4.66-2.8,8.68-2.62,11.62.02.39-.27.73-.66.75-.01,0-.03,0-.04,0Z"/>
      </g>
      <path class="uuid-118d934a-3fb2-4efa-a0ca-3a95aa0b92eb" d="M93.57,431.4c-.48-.45-.79-.94-1.41-.97-.37,0-.65.24-.8.18-1.06-2.1-8.73-19.86-9.84-22.31-.11-.21.04-.29-.14-.43-1.43-.54-3.04-.84-4.9-1.19-10.86-1.76-37.46-3.9-47.4.74-1.42.87-3.32,2.19-4.53,3.58-1,1.05-1.25,2.18-1.98,3.15-7.62,8.67-14.69,22.95-17.3,33.69-.16.76-.68,1.3-1.32,1.72-8.9,7.09-1.54,25.05,10.3,21.89.97-.25,1.96-.1,2.78.47,4.96,3.17,9.18,8.65,12.25,10.77,1.65,1.57,3.14,1.65,5.23.89,7.5-1.47,21.33-5.62,27.96-7.64.76-.21,1.7-.52,2.42-1.09.74-.6.85-1.42,1.32-2.18,2.89-4.87,7.65-11.82,12.07-18.28,0-1.05,17.97-18.52,15.39-22.91l-.09-.1ZM28.31,462.04c-.15,0-.32.05-.48-.22-.29-.46-.48-1.05.17-1.22,6.49-1.55,11.36-2.44,17-.48.35.15.52.41.44.78-.76,2.77-3.06,5.32-5.69,6.46-.33.09-.63.06-.86-.25-1.97-2.83-5.47-3.83-9.48-4.65-.32-.04-.86-.33-1.03-.41h-.08Z"/>
      <path class="uuid-67fec28b-8833-40e5-937d-22f824693a50" d="M129.87,387.1c-9.75-13.33-12.15-28.49-6.08-35.64l-36.34,34.1c-7.85,5.74-6.08,21.5,3.94,35.19,10.02,13.69,24.51,20.14,32.35,14.39.26-.19.5-.39.73-.59l39.79-32.15c-8.34,6.11-23.74-.75-34.4-15.31Z"/>
      <path class="uuid-3bf2c131-b44c-4a53-977e-5b1efc70c8b4" d="M464.89,180.25c-.89,0-1.78-.28-2.54-.86-8.41-6.39-22.05-9.69-35.59-8.63-2.3.19-4.33-1.54-4.52-3.85-.18-2.31,1.54-4.33,3.85-4.52,15.76-1.25,31.21,2.61,41.33,10.31,1.85,1.4,2.2,4.04.8,5.88-.83,1.09-2.08,1.66-3.34,1.66Z"/>
      <ellipse class="uuid-04b85a6e-8f1c-4939-891c-dbd0cca1ed1f" cx="441.99" cy="337.03" rx="7.3" ry="6.44"/>
      <path class="uuid-c4e91524-7c02-42fa-92b0-07db64ec7a7a" d="M511.82,707.76c14.1,16.68,30.75,29.55,51.21,37.61,32.64,12.85,69.09,15.1,104.3,14.29-13.74-12.73-26.37-25.88-38.01-39.26-24.42-.64-48.7-3.57-71.74-10.77-22.18-6.93-41.07-18.89-56.45-36.28-10.37-11.73-19.27-25.55-33.81-32.54-8.06-3.88-17.08-4.97-25.94-4.66-20.6.72-41.41,6.99-61.03,12.71-50.91,14.83-99.09,38.43-140.33,71.73,2.65,15.07,5.82,30.03,9.54,44.84,36.83-31.09,79.43-54.56,125.19-70.32,23.71-8.16,48.81-15.76,73.78-18.82,9.79-1.2,20.02-1.29,29.48,1.84,14.57,4.82,24,18.03,33.81,29.64Z"/>
      <path class="uuid-c4e91524-7c02-42fa-92b0-07db64ec7a7a" d="M460.65,553.55c27.41,8.28,54.13,18.68,80.2,30.5-6.92-14.22-13.05-27.84-18.54-40.59-43.92-19.72-89.93-35.55-137.5-43.51-39.44-6.6-80.58-7.89-119.68,1.56-11.9,2.87-23.51,6.78-34.65,11.8-.98,16.07-1.63,32.32-1.9,48.68,69.53-41.21,158.12-30.76,232.07-8.42Z"/>
    </g>
  </g>
</svg>