<?xml version="1.0" encoding="UTF-8"?>
<svg id="uuid-57ec602a-6813-49cb-8a6f-2024b566f1da" data-name="Capa 2" xmlns="http://www.w3.org/2000/svg" viewBox="0 0 86.46 68.9">
  <defs>
    <style>
      .uuid-2b9f1b28-8e88-409b-aacf-8f5ff2a62fee {
        fill: #ff3c52;
      }
    </style>
  </defs>
  <g id="uuid-87c351c0-eae2-488e-8b57-5b29faeea326" data-name="Capa 1">
    <path class="uuid-2b9f1b28-8e88-409b-aacf-8f5ff2a62fee" d="M81.65,14.3h-8.35V5.41c0-2.98-2.43-5.41-5.41-5.41H5.41C2.43,0,0,2.43,0,5.41v42.84c0,2.98,2.43,5.41,5.41,5.41h20.79c-.68,4.19-2.97,7.08-5.74,9.92h-4.9c-1.47,0-2.66,1.19-2.66,2.66s1.19,2.66,2.66,2.66h66.09c2.65,0,4.81-2.16,4.81-4.82V19.11c0-2.65-2.16-4.81-4.81-4.81h0ZM81.14,57.37h-23.98V19.62h23.98v37.76ZM5.41,5.32h62.47s.09.05.09.09v8.89h-11.31c-2.65,0-4.81,2.16-4.81,4.81v22.29H5.32V5.41s.05-.09.09-.09h0ZM51.85,53.66v8.88c-2.32-2.53-4.15-5.2-4.75-8.88h4.75Z"/>
  </g>
</svg>