<?xml version="1.0" encoding="UTF-8"?>
<svg id="uuid-6e24c508-9a03-4be8-876f-841197be9fd1" data-name="Capa 2" xmlns="http://www.w3.org/2000/svg" viewBox="0 0 62.08 71.32">
  <defs>
    <style>
      .uuid-1ddf6a80-eb7e-47ae-8ad5-773434e0d11b {
        fill: #ff3c52;
      }
    </style>
  </defs>
  <g id="uuid-2f6ec5d4-c775-4cb5-a085-653787bdbb84" data-name="Capa 1">
    <g id="uuid-597f239f-5691-4c7e-874d-3a97a7b8f2da" data-name="179">
      <path class="uuid-1ddf6a80-eb7e-47ae-8ad5-773434e0d11b" d="M51.71,0H10.37C4.67,0,0,4.64,0,10.37v50.58c0,5.71,4.67,10.37,10.37,10.37h41.34c5.71,0,10.37-4.67,10.37-10.37V10.37c0-5.74-4.67-10.37-10.37-10.37ZM30.88,60.44h-14.17c-1.77,0-3.21-1.44-3.21-3.21s1.44-3.21,3.21-3.21h14.17c1.77,0,3.21,1.44,3.21,3.21s-1.44,3.21-3.21,3.21ZM45.37,45.11h-28.66c-1.77,0-3.21-1.44-3.21-3.21s1.44-3.21,3.21-3.21h28.66c1.77,0,3.21,1.44,3.21,3.21s-1.44,3.21-3.21,3.21ZM49.62,16.21l-10.29,11.48c-1.05,1.17-2.79,1.4-4.11.56l-9.99-6.37-8.07,8.42c-1.23,1.28-3.26,1.32-4.53.1-1.28-1.23-1.33-3.26-.1-4.54l9.89-10.33c1.06-1.1,2.75-1.31,4.04-.49l9.91,6.32,8.48-9.45c1.18-1.32,3.22-1.42,4.53-.24,1.32,1.18,1.43,3.21.24,4.53Z"/>
    </g>
  </g>
</svg>