<?xml version="1.0" encoding="UTF-8"?>
<svg id="uuid-32cabe77-8df4-4aa7-a9ee-0f0ffb1b21d3" data-name="Capa 2" xmlns="http://www.w3.org/2000/svg" viewBox="0 0 79.1 79.1">
  <defs>
    <style>
      .uuid-221d8ece-f84c-42bb-9d4a-05d6ea2e692e {
        fill: #ff3c52;
      }
    </style>
  </defs>
  <g id="uuid-d631a154-993a-42d6-bfce-beb954ffec38" data-name="Capa 1">
    <g>
      <path class="uuid-221d8ece-f84c-42bb-9d4a-05d6ea2e692e" d="M23.45,56.64s.06-.04.09-.06c-4.46-8.48-1.5-19.06,6.89-23.98-2.27-1.75-5.11-2.79-8.18-2.79-7.41,0-13.44,6.03-13.44,13.44,0,7.88,6.78,14.09,14.65,13.39Z"/>
      <path class="uuid-221d8ece-f84c-42bb-9d4a-05d6ea2e692e" d="M8.8,55.32c-5.3,3.52-8.8,9.54-8.8,16.36,0,1.28,1.04,2.32,2.32,2.32h10.66c.56-4.94,2.6-9.43,5.67-13.03-3.87-.78-7.3-2.81-9.85-5.65h0Z"/>
      <path class="uuid-221d8ece-f84c-42bb-9d4a-05d6ea2e692e" d="M55.56,56.58s.06.04.09.06c7.86.7,14.65-5.49,14.65-13.39,0-7.41-6.03-13.44-13.44-13.44-3.08,0-5.91,1.04-8.18,2.79,8.4,4.93,11.34,15.52,6.89,23.98Z"/>
      <path class="uuid-221d8ece-f84c-42bb-9d4a-05d6ea2e692e" d="M70.3,55.32c-2.54,2.84-5.97,4.86-9.85,5.65,3.07,3.6,5.11,8.09,5.67,13.03h10.66c1.28,0,2.32-1.04,2.32-2.32,0-6.82-3.5-12.84-8.8-16.36Z"/>
      <circle class="uuid-221d8ece-f84c-42bb-9d4a-05d6ea2e692e" cx="39.55" cy="48.2" r="13.44"/>
      <path class="uuid-221d8ece-f84c-42bb-9d4a-05d6ea2e692e" d="M52.9,60.38c-7.19,7.87-19.52,7.86-26.7,0-5.27,3.55-8.74,9.58-8.74,16.41,0,1.28,1.04,2.32,2.32,2.32h39.55c1.28,0,2.32-1.04,2.32-2.32,0-6.82-3.47-12.85-8.74-16.41Z"/>
      <path class="uuid-221d8ece-f84c-42bb-9d4a-05d6ea2e692e" d="M35.4,28.94l3.11,1.56c.65.32,1.42.33,2.07,0l3.11-1.56c4.82-2.41,8.79-6.39,11.2-11.2,1.18-2.36,1.8-4.99,1.8-7.63,0-5.58-4.54-10.12-10.12-10.12-2.61,0-5.16,1.03-7.03,2.84-1.88-1.81-4.42-2.84-7.03-2.84-5.58,0-10.12,4.54-10.12,10.12,0,2.63.62,5.27,1.8,7.63,2.41,4.82,6.39,8.79,11.2,11.2h0Z"/>
    </g>
  </g>
</svg>