<?xml version="1.0" encoding="UTF-8"?>
<svg id="uuid-43a1a762-5c1b-4739-8d16-0078b1fc855a" data-name="Capa 2" xmlns="http://www.w3.org/2000/svg" viewBox="0 0 90.14 62.09">
  <defs>
    <style>
      .uuid-3cee8e33-9c2b-4530-9cdf-b4b45abf13bb {
        fill: #ff3c52;
      }
    </style>
  </defs>
  <g id="uuid-f00c27da-fa9a-4965-b87a-a9c3b2f4b11d" data-name="Capa 1">
    <g id="uuid-236740d4-21be-4bc1-bce9-a7963dce0b37" data-name="Layer 2">
      <path class="uuid-3cee8e33-9c2b-4530-9cdf-b4b45abf13bb" d="M88.36,26.02C83.77,8.86,71.92-2.39,61.4.43c-2.16.59-4.13,1.72-5.73,3.29-2.2,2.29-5.19,3.66-8.36,3.81h-4.49c-3.17-.15-6.16-1.52-8.36-3.81-1.6-1.57-3.57-2.71-5.73-3.29C18.24-2.38,6.37,8.86,1.77,26.02c-4.6,17.16.04,32.82,10.56,35.64,1.08.29,2.19.43,3.3.43,5.83,0,11.92-3.91,16.84-10.97,2.06-2.96,5.43-4.73,9.04-4.74h7.12c3.61,0,6.98,1.78,9.04,4.74,5.85,8.41,13.4,12.36,20.14,10.54,10.52-2.82,15.16-18.48,10.56-35.64h0ZM30.76,32.07h-3.07v3.07c0,1.69-1.37,3.07-3.07,3.07s-3.07-1.37-3.07-3.07v-3.07h-3.07c-1.69,0-3.07-1.37-3.07-3.07s1.37-3.07,3.07-3.07h3.07v-3.07c0-1.69,1.37-3.07,3.07-3.07s3.07,1.37,3.07,3.07v3.07h3.07c1.69,0,3.07,1.37,3.07,3.07s-1.37,3.07-3.07,3.07ZM60.4,29c-2.82,0-5.11-2.29-5.11-5.11,0-2.82,2.29-5.11,5.11-5.11,2.82,0,5.11,2.29,5.11,5.11h0c0,2.82-2.29,5.11-5.11,5.11h0,0ZM70.63,39.22c-2.82,0-5.11-2.29-5.11-5.11s2.29-5.11,5.11-5.11,5.11,2.29,5.11,5.11c0,2.82-2.29,5.11-5.11,5.11h0Z"/>
    </g>
  </g>
</svg>