<?xml version="1.0" encoding="UTF-8"?>
<svg id="uuid-a9504a06-c200-4bd5-8e87-c25d3d968dd3" data-name="Capa 2" xmlns="http://www.w3.org/2000/svg" viewBox="0 0 91.24 69">
  <defs>
    <style>
      .uuid-f8d7471c-97cf-4c49-9d9b-64e9c0b0dbb2 {
        fill: #ff3c52;
        fill-rule: evenodd;
      }
    </style>
  </defs>
  <g id="uuid-ee974dca-3a69-4ff4-a292-eb0bdca84e84" data-name="Capa 1">
    <g>
      <path class="uuid-f8d7471c-97cf-4c49-9d9b-64e9c0b0dbb2" d="M31,35.06c-2.19,0-4.01,1.87-4.01,4.01s1.82,4.01,4.01,4.01,4.01-1.82,4.01-4.01-1.66-4.01-4.01-4.01Z"/>
      <path class="uuid-f8d7471c-97cf-4c49-9d9b-64e9c0b0dbb2" d="M74.18,20.9h-26.24v-7.33c2.71-.97,4.7-3.54,4.7-6.56,0-3.85-3.21-7-7.06-7s-7,3.15-7,7c0,3.04,1.98,5.62,4.7,6.58v7.32h-26.4c-3.21,0-5.72,2.46-5.72,5.67v36.77c0,3.15,2.51,5.67,5.72,5.67h57.46c2.99,0,5.66-2.51,5.5-5.67V26.56c0-3.21-2.51-5.67-5.66-5.67ZM22.13,38.91c0-4.81,4.01-8.82,8.87-8.82s8.87,4.01,8.87,8.82-3.85,8.87-8.87,8.87-8.87-4.01-8.87-8.87ZM55.37,59.81h-19.72c-1.34,0-2.3-1.02-2.3-2.35s.96-2.35,2.3-2.35h19.88c1.34,0,2.35,1.02,2.35,2.35s-1.18,2.35-2.51,2.35ZM60.07,47.78c-4.86,0-8.87-4.01-8.87-8.87s4.01-8.82,8.87-8.82,8.82,4.01,8.82,8.82c-.16,5.02-4.01,8.87-8.82,8.87Z"/>
      <path class="uuid-f8d7471c-97cf-4c49-9d9b-64e9c0b0dbb2" d="M60.07,35.06c-2.19,0-4.01,1.87-4.01,4.01s1.82,4.01,4.01,4.01,4.01-1.82,4.01-4.01c-.16-2.14-1.87-4.01-4.01-4.01Z"/>
      <path class="uuid-f8d7471c-97cf-4c49-9d9b-64e9c0b0dbb2" d="M83.86,32.98v24.32c4.49-2.3,7.48-6.95,7.38-12.19,0-5.24-2.99-9.83-7.38-12.13Z"/>
      <path class="uuid-f8d7471c-97cf-4c49-9d9b-64e9c0b0dbb2" d="M0,45.11c0,5.13,2.94,9.67,7.16,12.03v-24.05c-4.22,2.3-7.16,6.84-7.16,12.03Z"/>
    </g>
  </g>
</svg>