<?xml version="1.0" encoding="UTF-8"?>
<svg id="uuid-4b84e7ce-575a-4eef-8bf5-cc68c1eacf16" data-name="Capa 2" xmlns="http://www.w3.org/2000/svg" viewBox="0 0 77.65 77.65">
  <defs>
    <style>
      .uuid-4662646f-6160-4692-b143-04736c6a701e {
        fill: #ff3c52;
      }
    </style>
  </defs>
  <g id="uuid-ec5a4a3b-8387-429f-a4ef-35a23124688b" data-name="Capa 1">
    <g>
      <path class="uuid-4662646f-6160-4692-b143-04736c6a701e" d="M48.78,12.83l5.01,2.5,2.5,5.01c.81,1.66,3.26,1.66,4.07,0l2.5-5.01,5.01-2.5c1.66-.81,1.66-3.26,0-4.07l-5.01-2.5-2.5-5.01c-.81-1.66-3.26-1.66-4.07,0l-2.5,5.01-5.01,2.5c-1.66.81-1.66,3.26,0,4.07h0Z"/>
      <path class="uuid-4662646f-6160-4692-b143-04736c6a701e" d="M11.01,21.36l5.82,2.91,2.91,5.82c.81,1.66,3.26,1.66,4.07,0l2.91-5.82,5.82-2.91c1.66-.81,1.66-3.26,0-4.07l-5.82-2.91-2.91-5.82c-.81-1.66-3.26-1.66-4.07,0l-2.91,5.82-5.82,2.91c-1.66.81-1.66,3.26,0,4.07Z"/>
      <path class="uuid-4662646f-6160-4692-b143-04736c6a701e" d="M76.4,47.92l-7.45-3.72-3.72-7.45c-.81-1.66-3.26-1.66-4.07,0l-3.72,7.45-7.45,3.72c-1.66.81-1.66,3.26,0,4.07l7.45,3.72,3.72,7.45c.81,1.66,3.26,1.66,4.07,0l3.72-7.45,7.45-3.72c1.66-.81,1.66-3.26,0-4.07h0Z"/>
      <path class="uuid-4662646f-6160-4692-b143-04736c6a701e" d="M68.23,26.63c0,1.26,1.02,2.28,2.28,2.28h.16v.16c.11,3.02,4.44,3.01,4.55,0v-.16h.16c3.02-.11,3.01-4.44,0-4.55h-.16v-.16c-.11-3.02-4.44-3.01-4.55,0v.16h-.16c-1.26,0-2.28,1.02-2.28,2.28Z"/>
      <path class="uuid-4662646f-6160-4692-b143-04736c6a701e" d="M.67,66.87c-.89.89-.89,2.33,0,3.22l6.89,6.89c.89.89,2.33.89,3.22,0l29.1-29.1-10.11-10.11L.67,66.87Z"/>
      <path class="uuid-4662646f-6160-4692-b143-04736c6a701e" d="M54.64,29.9l-6.89-6.89c-.89-.89-2.33-.89-3.22,0l-11.55,11.55,10.11,10.11,11.55-11.55c.89-.89.89-2.33,0-3.22h0Z"/>
    </g>
  </g>
</svg>