<?xml version="1.0" encoding="UTF-8"?>
<svg id="uuid-e648e795-fc94-4187-b5c4-1b35ad3f25f9" data-name="Capa 2" xmlns="http://www.w3.org/2000/svg" viewBox="0 0 188.29 137.34">
  <defs>
    <style>
      .uuid-aae1c498-4c59-4991-9cb0-ddf8c257b474 {
        fill: #997522;
      }
    </style>
  </defs>
  <g id="uuid-e7b961cd-aace-49a0-a7a4-9ae46cbf1ef5" data-name="Capa 1">
    <g>
      <path class="uuid-aae1c498-4c59-4991-9cb0-ddf8c257b474" d="M8.47,100.37h68.41c3,0,5.64-1.57,7.15-3.93,1.25-1.96-.15-4.54-2.48-4.54h0c-1.02,0-1.94.54-2.49,1.39-.46.72-1.27,1.2-2.18,1.2H8.47c-1.43,0-2.59-1.16-2.59-2.59v-51.87c0-1.43,1.16-2.59,2.59-2.59h68.41c1.43,0,2.59,1.16,2.59,2.59v23c0,1.62,1.32,2.94,2.94,2.94h0c1.62,0,2.94-1.32,2.94-2.94v-23c0-4.68-3.79-8.47-8.47-8.47H8.47c-4.68,0-8.47,3.79-8.47,8.47v51.87c0,4.68,3.79,8.47,8.47,8.47Z"/>
      <g>
        <path class="uuid-aae1c498-4c59-4991-9cb0-ddf8c257b474" d="M157.55,36.98c6.02,0,10.91,4.9,10.91,10.91s-4.89,10.91-10.91,10.91-10.91-4.9-10.91-10.91,4.9-10.91,10.91-10.91Z"/>
        <path class="uuid-aae1c498-4c59-4991-9cb0-ddf8c257b474" d="M24.6,56.67l36.24,11.08c1.53-2.47,4.26-4.12,7.37-4.12,4.79,0,8.68,3.89,8.68,8.68,0,.23-.02.45-.03.67l32.36,11.04c1.37.62,2.73,1.19,4.08,1.71-2.82-12.72-11.57-53.95-12.61-63.5,46.37-41.32,85.71-19.83,87.6,22.08-3.58-.59-7.43-1.32-11.51-2.18-.51,7.45-6.48,32.37-9.06,41.35l11.06,12.53c3.14,2.96,2.65,8.08-.99,10.39,0,0-11.35,5.24-14.24,7.5,1.91,2.31.28,5.95-2.9,5.84l-9.5,11.17,5.3,3.05c1.38.79.86,2.9-.73,2.95l-12.39.43c-1.86.06-3.39-1.43-3.39-3.29,0-4.6,1.92-11.05-5.24-13-8.03-2.19-15.92,8.01-17.64,13.23-.48,1.47-1.89,2.44-3.44,2.44h-7.61c-1.73,0-2.33-2.31-.81-3.15l5.87-3.22,2.39-9.97c1.52-6.35,1.87-12.94.85-19.39-.4-2.52-.93-4.52-1.63-5.01-7.29-5.15-33.68-15.09-38.88-17.02-1.51,1.27-3.46,2.05-5.59,2.05-4.79,0-8.68-3.89-8.68-8.68,0-.33.02-.65.06-.96l-35.22-14.03c-.41-.16-.19-.77.23-.65ZM171.78,103.44c1.1-.77.9-2.44-.35-2.93l-6-1.77-2.47,10.87,8.82-6.17ZM126.79,71.73c.33.16,8.16,3.96,19.44,2.47.1-.01.19-.03.29-.06,1.18-.3,1.97-1.44,1.81-2.68-.18-1.33-1.4-2.27-2.73-2.09-9.73,1.29-16.58-1.98-16.65-2.01-1.21-.59-2.66-.09-3.25,1.12-.59,1.2-.1,2.66,1.1,3.25ZM123.05,63.44c8.09,0,14.75-6.21,15.47-14.11.8-.25,2.06-.38,3.54-.17.65,7.98,7.34,14.28,15.48,14.28,8.57,0,15.55-6.97,15.55-15.55s-6.97-15.55-15.55-15.55c-7.42,0-13.62,5.22-15.17,12.18-1.52-.19-2.92-.13-4.13.12-1.5-7.02-7.74-12.3-15.2-12.3-8.57,0-15.55,6.97-15.55,15.55s6.97,15.55,15.55,15.55Z"/>
        <path class="uuid-aae1c498-4c59-4991-9cb0-ddf8c257b474" d="M123.05,36.98c6.02,0,10.91,4.9,10.91,10.91s-4.9,10.91-10.91,10.91-10.91-4.9-10.91-10.91,4.89-10.91,10.91-10.91Z"/>
      </g>
    </g>
  </g>
</svg>