<?xml version="1.0" encoding="UTF-8"?>
<svg id="uuid-e47c8dc1-58e0-45cd-8707-d13a855838ae" data-name="Capa 2" xmlns="http://www.w3.org/2000/svg" viewBox="0 0 110.85 133.69">
  <defs>
    <style>
      .uuid-124010ec-8ee0-41c7-bfa0-f4adc4b72dab {
        fill: #419269;
      }
    </style>
  </defs>
  <g id="uuid-74268ba9-5ee4-4afb-91c0-40348cc842cc" data-name="Capa 1">
    <path class="uuid-124010ec-8ee0-41c7-bfa0-f4adc4b72dab" d="M87.84,40.86c-.54-8.85-1.34-16.7-2.56-21.18C68.53-6.92,16.6-12.21,0,39.86c11.45-2.05,11.55,1,15.85,1.51,2.24,2.62,4.39,5.99,6.36,9.59-1.33-8.33,4.35-16.21,12.68-17.58,7.27-1.2,14.21,2.95,16.8,9.56,1.15-.43,2.5-.72,4.01-.78.39-7.03,5.61-13.12,12.84-14.31,8.36-1.37,16.28,4.31,17.66,12.67.07.41.11.83.14,1.24l1.49-.91ZM22.26,51.22c-.01-.06-.03-.11-.04-.17,0-.03,0-.05,0-.08.05.09.09.18.14.27l-.09-.02ZM60.39,44.77c-.97-5.87,3.03-11.43,8.9-12.4,5.87-.96,11.43,3.03,12.39,8.9.19,1.13.17,2.25,0,3.33l-14.15,8.61c-3.63-1.25-6.48-4.39-7.15-8.44ZM50.52,56.47c1.6-2.64,2.42-5.76,2.19-9.01.74-.37,1.94-.7,3.43-.73.99,3.98,3.5,7.24,6.78,9.29l-3.47,2.11-8.93-1.66ZM28.07,129.93c5.11-1.22,9.58-2.38,10.17-2.79.47-.32,1.5-1.78,2.32-4.24l10.18,2.88c-1.55,3.29-2.39,6.29-2.46,7.9h-19.77c-2.26,0-2.64-3.23-.44-3.76ZM91.41,116.37c.57,7.53,1.01,13,1.01,13l12.05,1.4c1.83.21,1.67,2.91-.17,2.91h-22.87s-.02-5.63-1.63-11.25l11.62-6.07ZM26.74,50.3c-.96-5.87,3.03-11.43,8.9-12.4,5.87-.96,11.43,3.03,12.4,8.9.54,3.26-.47,6.42-2.46,8.75l-18.35-3.41c-.21-.59-.37-1.2-.48-1.84ZM94.22,71.65c0-4.41,3.73-7.99,8.32-7.99s8.32,3.59,8.32,7.99-3.73,7.99-8.32,7.99-8.32-3.59-8.32-7.99ZM20.35,82.85c0,4.38-3.7,7.95-8.26,7.95s-8.26-3.57-8.26-7.95,3.7-7.95,8.26-7.95,8.26,3.57,8.26,7.95ZM23.22,82.85c0-5.76-4.67-10.46-10.52-10.77l-3.17-20.78,50.39,9.37,38.02-23.14,2.15,23.17c-5.18,1.1-9.07,5.58-9.07,10.94,0,6.05,4.95,10.98,11.12,11.18l2.23,24.05-39.21,20.49-46-13.03-3.26-21.35c4.27-1.51,7.33-5.48,7.33-10.14Z"/>
  </g>
</svg>