<?xml version="1.0" encoding="UTF-8"?>
<svg id="uuid-7a260c37-0e1d-42d3-b7d2-94e5abe13b6d" data-name="Capa 2" xmlns="http://www.w3.org/2000/svg" viewBox="0 0 16.58 12.92">
  <defs>
    <style>
      .uuid-1db5e859-aa74-4e3f-819f-095e6cafff48 {
        fill: #fff;
      }
    </style>
  </defs>
  <g id="uuid-70ea8cd2-0aac-4ec2-b6ad-2be31751f5ff" data-name="Capa 1">
    <path class="uuid-1db5e859-aa74-4e3f-819f-095e6cafff48" d="M15.98,5.01c-.39-.39-.9-.6-1.45-.6h-7.54s.92-.92.92-.92c.39-.39.6-.9.6-1.45,0-1.13-.92-2.05-2.05-2.05-.55,0-1.06.21-1.45.6L.6,5.01c-.29.29-.48.64-.56,1.04-.03.13-.04.27-.04.41,0,.55.21,1.06.6,1.45l4.41,4.41c.39.39.9.6,1.45.6,1.13,0,2.05-.92,2.05-2.05,0-.55-.21-1.06-.6-1.45l-.92-.92h7.54c.55,0,1.06-.21,1.45-.6.8-.8.8-2.1,0-2.89Z"/>
  </g>
</svg>