<?xml version="1.0" encoding="UTF-8"?>
<svg id="uuid-d2bdbdf1-9861-4470-a023-158915c13117" data-name="Capa 2" xmlns="http://www.w3.org/2000/svg" viewBox="0 0 19.07 19.07">
  <defs>
    <style>
      .uuid-99fc6ce3-5082-4c28-a9a8-4a50b99444d3 {
        fill: #fff;
      }
    </style>
  </defs>
  <g id="uuid-9473f520-f96a-4b2a-bc79-e900aad4dc00" data-name="Capa 1">
    <path class="uuid-99fc6ce3-5082-4c28-a9a8-4a50b99444d3" d="M9.53,0C4.26,0,0,4.26,0,9.53s4.26,9.53,9.53,9.53,9.53-4.26,9.53-9.53S14.81,0,9.53,0ZM13.77,9.98l-6.35,3.72c-.07.05-.19.07-.26.07s-.19-.02-.26-.07c-.16-.12-.26-.26-.26-.44v-7.42h-.02c0-.19.12-.37.26-.44.14-.07.37-.12.53,0l6.35,3.7c.16.12.26.26.26.44s-.12.37-.26.44Z"/>
  </g>
</svg>