<?xml version="1.0" encoding="UTF-8"?>
<svg id="uuid-a0d15609-ed79-485b-a98e-c682b704434b" data-name="Capa 2" xmlns="http://www.w3.org/2000/svg" viewBox="0 0 17.2 17.2">
  <defs>
    <style>
      .uuid-8968270f-9494-4bc3-8356-2ad57e1e1c61 {
        fill: #fff;
      }
    </style>
  </defs>
  <g id="uuid-302d5309-7dc4-422f-9cf4-30bc1216a210" data-name="Capa 1">
    <g id="uuid-290e5b08-18dd-4066-b1cf-62366bf5b08c" data-name="Layer 2">
      <path class="uuid-8968270f-9494-4bc3-8356-2ad57e1e1c61" d="M16.42,5.92L9.97.5c-.79-.67-1.95-.67-2.74,0L.78,5.92C.28,6.34,0,6.96,0,7.61v7.4c0,1.2.95,2.18,2.15,2.19h3.58c.4,0,.72-.32.72-.72v-5.02c0-1.19.96-2.15,2.15-2.15s2.15.96,2.15,2.15v5.02c0,.4.32.72.72.72h3.58c1.2-.01,2.16-.99,2.15-2.19v-7.4c0-.65-.28-1.27-.78-1.69h0Z"/>
    </g>
  </g>
</svg>