<?xml version="1.0" encoding="UTF-8"?>
<svg id="uuid-e1860ed1-fb2a-4401-aa82-214be2e6a5a5" data-name="Capa 2" xmlns="http://www.w3.org/2000/svg" viewBox="0 0 19.07 19.07">
  <defs>
    <style>
      .uuid-d4a226c0-269b-4ab5-8d90-64e11949c89d {
        fill: #fff;
      }
    </style>
  </defs>
  <g id="uuid-673f8591-e33d-48c5-b72a-7a8792d53e80" data-name="Capa 1">
    <path class="uuid-d4a226c0-269b-4ab5-8d90-64e11949c89d" d="M9.53,0C4.26,0,0,4.26,0,9.53s4.26,9.53,9.53,9.53,9.53-4.26,9.53-9.53S14.8,0,9.53,0ZM9.16,15.68c-.74,0-1.3-.62-1.3-1.32s.58-1.32,1.3-1.32,1.32.6,1.32,1.32-.58,1.32-1.32,1.32ZM11.11,9.02c-.94.74-.96,1.25-.96,2.14,0,.33-.17.7-1.01.7-.7,0-.94-.26-.94-1.15,0-1.47.65-2.18,1.15-2.6.57-.48,1.52-1.01,1.52-1.94,0-.79-.69-1.16-1.54-1.16-1.75,0-1.37,1.32-2.3,1.32-.46,0-1.03-.31-1.03-.98,0-.92,1.06-2.3,3.37-2.3,2.19,0,3.65,1.22,3.65,2.83s-1.46,2.77-1.92,3.13Z"/>
  </g>
</svg>