<?xml version="1.0" encoding="UTF-8"?>
<svg id="uuid-ab876870-2609-4df6-bad0-55665afdcf6b" data-name="Capa 2" xmlns="http://www.w3.org/2000/svg" viewBox="0 0 181.84 135.22">
  <defs>
    <style>
      .uuid-2a8b64d9-b891-4447-9c3c-fa0c74370831 {
        fill: #674698;
      }
    </style>
  </defs>
  <g id="uuid-540f6073-b545-475e-a196-302963ce458c" data-name="Capa 1">
    <g>
      <path class="uuid-2a8b64d9-b891-4447-9c3c-fa0c74370831" d="M157.06,17.89c8.01,10.53,18.8-7.04,24.34-12.83,5.53-5.79-42.89-11.57-24.34,12.83Z"/>
      <path class="uuid-2a8b64d9-b891-4447-9c3c-fa0c74370831" d="M87.03,8.57c-2.64,12.45-4.37,62.86-4.18,71.37,0,0,0,0,0,0-5.09-15.29-7.01-63.56-12.67-73.88C64.52-4.26,3.02-4.19,0,41.18c0,0,0,0,0,0l10.06-1.91s0,0,0,0c3.39,6.6,7.76,14.61,12.34,23.01,0,0,0,0,0,0-3.19,3.18-7.25,7.39-11.04,11.37-5.03,5.29-2.35,14.04,4.78,15.61l20.21,4.45s0,0,0,0c.32,3.5,1.51,9.13,5.83,9.02.39-.01.75-.07,1.06-.16,4.28,9.44,6.61,16.57,5.08,18.87-1.86,2.79-7.99,5.59-14.57,7.93-3.15,1.12-2.37,5.77.97,5.78l23.41.07s0,0,0,0c0-.04-2.45-28.86,3.96-29.05,4.75-.14,10.94,15.77,14.13,24.05.09.24-3.39,1.25-6.36,2.79-1.03.53-.66,2.08.5,2.08,4.38,0,7.78-.01,7.92,0,.75.06,14.72,0,14.72,0,0,0,3.56,0,6.6,0,1.26,0,1.68-1.66.59-2.28-3.15-1.81-6.26-2.48-6.19-2.77,1.81-8.19,6.1-23.44,13-23.31,9.43.19,9.62,28.32,9.62,28.36,0,0,0,0,0,0h24c1.72,0,2.36-2.28.88-3.15-7.04-4.17-17.74-6.72-16.8-26.53.09-1.8.26-3.78.51-5.9,0,0,0,0,0,0,2.44-.56,3.34-3.06,4.03-7.06,0,0,0,0,0,0l17.16-11.41c5.12-3.4,4.52-11.1-1.06-13.68l-11.61-5.36s0,0,0,0c5.08-16.07,11.67-31,18.14-37.09,12.83-12.07-39.94-27.1-64.85-16.35,0,0,0,0,0,0ZM25.83,79.57l4.2-3.16s0,0,0,0c1.88,3.51,3.71,6.98,5.46,10.37,0,0,0,0,0,0l-8.76-2.42c-2.17-.6-2.71-3.43-.91-4.79ZM135.14,77.47c2.12,1.06,2.29,4.03.29,5.31l-8.29,5.34-.11.03c.82-4.22,1.84-8.68,3.01-13.22,0,0,0,0,0,0l5.1,2.54ZM37.6,43.49c0,2.51-2.04,4.55-4.55,4.55s-4.55-2.04-4.55-4.55,2.04-4.55,4.55-4.55,4.55,2.04,4.55,4.55ZM64.17,33.49c0,2.51-2.04,4.55-4.55,4.55s-4.55-2.04-4.55-4.55,2.04-4.55,4.55-4.55,4.55,2.04,4.55,4.55ZM102.49,36.17c-1.12,2.25-3.86,3.15-6.1,2.03s-3.15-3.86-2.03-6.1c1.12-2.25,3.86-3.15,6.1-2.03s3.15,3.86,2.03,6.1ZM130.72,39.13c-1.12,2.25-3.86,3.15-6.1,2.03-2.25-1.12-3.15-3.86-2.03-6.1s3.86-3.15,6.1-2.03c2.25,1.12,3.15,3.86,2.03,6.1ZM121.53,52.4c-.32.16-8.07,3.91-19.21,2.44-.1-.01-.19-.03-.28-.05-1.07-.27-1.82-1.24-1.81-2.35.01-1.45,1.42-2.54,2.86-2.35,9.55,1.22,16.25-1.97,16.32-2,1.19-.58,2.63-.09,3.22,1.1.58,1.19.1,2.63-1.09,3.22ZM62.01,47.75c-.28.23-6.98,5.63-18.17,6.71-.1,0-.19.01-.29.01-1.1-.02-2.05-.8-2.29-1.88-.32-1.42.81-2.79,2.25-2.94,9.58-.96,15.39-5.59,15.45-5.63,1.03-.83,2.54-.68,3.38.35.84,1.03.69,2.54-.34,3.38Z"/>
    </g>
  </g>
</svg>